0
SECTION
2
HEADER
9
$INSUNITS
70
4
9
$ACADVER
1
AC1014
9
$HANDSEED
5
FFFF
0
ENDSEC
0
SECTION
2
TABLES
0
TABLE
2
VPORT
5
8
100
AcDbSymbolTable
0
ENDTAB
0
TABLE
2
LTYPE
5
5
100
AcDbSymbolTable
0
LTYPE
5
14
100
AcDbSymbolTableRecord
100
AcDbLinetypeTableRecord
2
BYBLOCK
70
0
0
LTYPE
5
15
100
AcDbSymbolTableRecord
100
AcDbLinetypeTableRecord
2
BYLAYER
70
0
0
ENDTAB
0
TABLE
2
LAYER
5
2
100
AcDbSymbolTable
70
2
0
LAYER
5
50
100
AcDbSymbolTableRecord
100
AcDbLayerTableRecord
2
0
70
0
6
CONTINUOUS
0
ENDTAB
0
TABLE
2
STYLE
5
3
100
AcDbSymbolTable
70
1
0
STYLE
5
11
100
AcDbSymbolTableRecord
100
AcDbTextStyleTableRecord
2
STANDARD
70
0
0
ENDTAB
0
TABLE
2
VIEW
5
6
100
AcDbSymbolTable
70
0
0
ENDTAB
0
TABLE
2
UCS
5
7
100
AcDbSymbolTable
70
0
0
ENDTAB
0
TABLE
2
APPID
5
9
100
AcDbSymbolTable
70
2
0
APPID
5
12
100
AcDbSymbolTableRecord
100
AcDbRegAppTableRecord
2
ACAD
70
0
0
ENDTAB
0
TABLE
2
DIMSTYLE
5
A
100
AcDbSymbolTable
70
1
0
ENDTAB
0
TABLE
2
BLOCK_RECORD
5
1
100
AcDbSymbolTable
70
1
0
BLOCK_RECORD
5
1F
100
AcDbSymbolTableRecord
100
AcDbBlockTableRecord
2
*MODEL_SPACE
0
BLOCK_RECORD
5
1B
100
AcDbSymbolTableRecord
100
AcDbBlockTableRecord
2
*PAPER_SPACE
0
ENDTAB
0
ENDSEC
0
SECTION
2
BLOCKS
0
BLOCK
5
20
100
AcDbEntity
100
AcDbBlockBegin
2
*MODEL_SPACE
0
ENDBLK
5
21
100
AcDbEntity
100
AcDbBlockEnd
0
BLOCK
5
1C
100
AcDbEntity
100
AcDbBlockBegin
2
*PAPER_SPACE
0
ENDBLK
5
1D
100
AcDbEntity
100
AcDbBlockEnd
0
ENDSEC
0
SECTION
2
ENTITIES
0
CIRCLE
5
100
100
AcDbEntity
8
0
100
AcDbCircle
10
141.42292965639683
20
-36.508527066540417
30
0
40
1.5749999999999886
210
0
220
0
230
1
0
CIRCLE
5
101
100
AcDbEntity
8
0
100
AcDbCircle
10
134.20869252885495
20
45.678305836304609
30
0
40
1.5749999999999886
210
0
220
0
230
1
0
CIRCLE
5
102
100
AcDbEntity
8
0
100
AcDbCircle
10
-3.8003408589618104
20
-49.108775971920558
30
0
40
1.5749999999999886
210
0
220
0
230
1
0
CIRCLE
5
103
100
AcDbEntity
8
0
100
AcDbCircle
10
-141.80878694455865
20
-36.354804038882335
30
0
40
1.5750000000000064
210
0
220
0
230
1
0
CIRCLE
5
104
100
AcDbEntity
8
0
100
AcDbCircle
10
-88.811609527667841
20
45.803259519899086
30
0
40
1.5749999999999886
210
0
220
0
230
1
0
CIRCLE
5
105
100
AcDbEntity
8
0
100
AcDbCircle
10
86.914963203512201
20
45.797515928690828
30
0
40
1.5749999999999886
210
0
220
0
230
1
0
CIRCLE
5
106
100
AcDbEntity
8
0
100
AcDbCircle
10
-134.50534085896118
20
45.824149441965403
30
0
40
1.5750000000000064
210
0
220
0
230
1
0
LINE
5
107
100
AcDbEntity
8
0
100
AcDbLine
10
142.41461927098891
20
42.079386286802347
30
0
11
142.41461927098874
21
20.1793863042992
31
0
0
ARC
5
108
100
AcDbEntity
8
0
100
AcDbCircle
10
142.21461927098886
20
20.179386304299129
30
0
40
0.19999999999992468
210
-0
220
0
230
1
100
AcDbArc
50
-90
51
0
0
LINE
5
109
100
AcDbEntity
8
0
100
AcDbLine
10
142.21461927098886
20
19.979386304299204
30
0
11
137.41461927098882
21
19.979386304299194
31
0
0
LINE
5
110
100
AcDbEntity
8
0
100
AcDbLine
10
137.41461927098882
20
19.979386304299194
30
0
11
137.41461927098882
21
-35.820613427480168
31
0
0
ARC
5
111
100
AcDbEntity
8
0
100
AcDbCircle
10
137.21461927098886
20
-35.820613427480183
30
0
40
0.19999999999999574
210
-0
220
0
230
1
100
AcDbArc
50
-90
51
0
0
LINE
5
112
100
AcDbEntity
8
0
100
AcDbLine
10
137.21461927098886
20
-36.020613427480171
30
0
11
78.335844119232405
21
-36.020613427480171
31
0
0
LINE
5
113
100
AcDbEntity
8
0
100
AcDbLine
10
78.335844119232405
20
-36.020613427480171
30
0
11
2.0694187714150303
21
-46.651690900207711
31
0
0
ARC
5
114
100
AcDbEntity
8
0
100
AcDbCircle
10
2.0418069510258263
20
-46.45360610176354
30
0
40
0.19999999999968487
210
-0
220
0
230
1
100
AcDbArc
50
270
51
277.93555037009338
0
LINE
5
115
100
AcDbEntity
8
0
100
AcDbLine
10
2.0418069510258263
20
-46.653606101763216
30
0
11
0.81461935149832243
21
-46.653606101763209
31
0
0
ARC
5
116
100
AcDbEntity
8
0
100
AcDbCircle
10
0.8146193514982869
20
-46.453606101763228
30
0
40
0.19999999999996021
210
0
220
0
230
1
100
AcDbArc
50
180
51
270.00000000001017
0
LINE
5
117
100
AcDbEntity
8
0
100
AcDbLine
10
0.61461935149832669
20
-46.453606101775165
30
0
11
0.61461935126420286
21
-42.536611982908028
31
0
0
LINE
5
118
100
AcDbEntity
8
0
100
AcDbLine
10
0.61461935126420286
20
-42.536611982908028
30
0
11
-7.5855126215189372
21
-42.536611982908028
31
0
0
LINE
5
119
100
AcDbEntity
8
0
100
AcDbLine
10
-7.5855126215189372
20
-42.536611982908028
30
0
11
-7.5855122848875567
21
-46.820482139422516
31
0
0
ARC
5
120
100
AcDbEntity
8
0
100
AcDbCircle
10
-7.7855122848875524
20
-46.820482155192423
30
0
40
0.19999999999999574
210
-0
220
0
230
1
100
AcDbArc
50
-90
51
4.4363380004132953e-06
0
LINE
5
121
100
AcDbEntity
8
0
100
AcDbLine
10
-7.7855122848875524
20
-47.020482155192418
30
0
11
-10.349412379275584
21
-47.020482155192418
31
0
0
ARC
5
122
100
AcDbEntity
8
0
100
AcDbCircle
10
-10.34941237927562
20
-46.820482155193055
30
0
40
0.19999999999936441
210
0
220
0
230
1
100
AcDbArc
50
261.96834390550737
51
270.00000000001017
0
LINE
5
123
100
AcDbEntity
8
0
100
AcDbLine
10
-10.377356420444634
20
-47.018520359999329
30
0
11
-88.319974999842856
21
-36.020482155544528
31
0
0
LINE
5
124
100
AcDbEntity
8
0
100
AcDbLine
10
-88.319974999842856
20
-36.020482155544528
30
0
11
-134.68524918613036
21
-36.020482155544585
31
0
0
ARC
5
125
100
AcDbEntity
8
0
100
AcDbCircle
10
-134.68524918613039
20
-35.820482155544589
30
0
40
0.19999999999997797
210
0
220
0
230
1
100
AcDbArc
50
180
51
270.00000000000813
0
LINE
5
126
100
AcDbEntity
8
0
100
AcDbLine
10
-134.88524918613035
20
-35.820482155544589
30
0
11
-134.88524918613038
21
39.079254761418106
31
0
0
ARC
5
127
100
AcDbEntity
8
0
100
AcDbCircle
10
-134.68524918613036
20
39.079254761418099
30
0
40
0.19999999999999574
210
0
220
-0
230
1
100
AcDbArc
50
90
51
180
0
LINE
5
128
100
AcDbEntity
8
0
100
AcDbLine
10
-134.68524918613036
20
39.279254761418095
30
0
11
-122.86315124868412
21
39.279254761418059
31
0
0
ARC
5
129
100
AcDbEntity
8
0
100
AcDbCircle
10
-122.86315124868412
20
41.279254761418052
30
0
40
1.9999999999999929
210
-0
220
0
230
1
100
AcDbArc
50
-90
51
0
0
LINE
5
130
100
AcDbEntity
8
0
100
AcDbLine
10
-120.86315124868413
20
41.279254761418052
30
0
11
-120.86315124868409
21
51.744474575397319
31
0
0
SPLINE
5
131
100
AcDbEntity
8
0
100
AcDbSpline
70
0
71
3
72
16
73
12
74
0
42
0.000000001
43
0.0000000001
44
0.0000000001
40
0
40
0
40
0
40
0
40
0.03906444733869311
40
0.03906444733869311
40
0.078128894677386582
40
0.078128894677386582
40
0.11719334201607978
40
0.11719334201607978
40
0.14096219456548123
40
0.14096219456548123
40
0.16473104711488432
40
0.16473104711488432
40
0.16473104711488432
40
0.16473104711488432
10
-121.93536722174056
20
52.741863593401604
30
0
10
-121.80549238584049
20
52.751267183656523
30
0
10
-121.67502249387736
20
52.735213427025045
30
0
10
-121.42758011581533
20
52.653998455634216
30
0
10
-121.31297331371724
20
52.589613700266938
30
0
10
-121.11489022985356
20
52.420537699823171
30
0
10
-121.03330773033333
20
52.317462913464496
30
0
10
-120.93755427677124
20
52.131188372154831
30
0
10
-120.90983458878183
20
52.056667882451826
30
0
10
-120.87256722120935
20
51.902653586422012
30
0
10
-120.86315124868409
20
51.823704083895336
30
0
10
-120.86315124868409
20
51.744474575397319
30
0
0
SPLINE
5
132
100
AcDbEntity
8
0
100
AcDbSpline
70
0
71
3
72
11
73
7
74
0
42
0.000000001
43
0.0000000001
44
0.0000000001
40
-1.492538965648446
40
-1.492538965648446
40
-1.492538965648446
40
-1.492538965648446
40
-0.78431678997027821
40
-0.78431678997027821
40
-0.78431678997027821
40
0
40
0
40
0
40
0
10
-121.93536722174058
20
52.741863593401604
30
0
10
-124.312620976723
20
52.569738484723693
30
0
10
-126.68223212529797
20
52.316687995404216
30
0
10
-129.04379791368913
20
51.974680019248439
30
0
10
-131.65910733797429
20
51.595924243052067
30
0
10
-134.25607367404118
20
51.109269846302936
30
0
10
-136.83063615897561
20
50.506372384248806
30
0
0
ARC
5
133
100
AcDbEntity
8
0
100
AcDbCircle
10
-139.6886972970901
20
62.711195673363378
30
0
40
12.534999999509893
210
-0
220
0
230
1
100
AcDbArc
50
282.52094564127754
51
283.1797328326183
0
SPLINE
5
134
100
AcDbEntity
8
0
100
AcDbSpline
70
0
71
3
72
41
73
37
74
0
42
0.000000001
43
0.0000000001
44
0.0000000001
40
-12.764904865058885
40
-12.764904865058885
40
-12.764904865058885
40
-12.764904865058885
40
-12.07023214669136
40
-12.07023214669136
40
-12.07023214669136
40
-11.479018611301505
40
-11.479018611301505
40
-11.479018611301505
40
-10.863350369952324
40
-10.863350369952324
40
-10.863350369952324
40
-10.164392448050398
40
-10.164392448050398
40
-10.164392448050398
40
-8.1320238489568837
40
-8.1320238489568837
40
-8.1320238489568837
40
-4.4026394906493405
40
-4.4026394906493405
40
-4.4026394906493405
40
-2.6842893107569221
40
-2.6842893107569221
40
-2.6842893107569221
40
-1.9838733744903625
40
-1.9838733744903625
40
-1.9838733744903625
40
-1.5392291848282806
40
-1.5392291848282806
40
-1.5392291848282806
40
-1.1183297484591057
40
-1.1183297484591057
40
-1.1183297484591057
40
-0.64767109587064975
40
-0.64767109587064975
40
-0.64767109587064975
40
-0.0011569123809192401
40
-0.0011569123809192401
40
-0.0011569123809192401
40
-0.0011569123809192401
10
-136.9711524103115
20
50.474314689154667
30
0
10
-138.39971945578205
20
50.161029236140074
30
0
10
-139.8503731659961
20
49.736377365473608
30
0
10
-141.22609883156574
20
49.146712129566382
30
0
10
-142.39688363551073
20
48.644888899184984
30
0
10
-143.54056951395464
20
48.012060963238589
30
0
10
-144.57169916753054
20
47.19727965145016
30
0
10
-145.64537942145745
20
46.348875570836128
30
0
10
-146.55825281466721
20
45.329596062179
30
0
10
-147.25187672300035
20
44.122619479910156
30
0
10
-148.03924695255049
20
42.752514705225522
30
0
10
-148.4723584538076
20
41.27016914379854
30
0
10
-148.67918657309491
20
39.758235138903551
30
0
10
-149.28055324523643
20
35.36218529735234
30
0
10
-148.11413083035492
20
30.241626234884748
30
0
10
-146.95379478399639
20
24.125785136823417
30
0
10
-144.82703814218027
20
12.916182783770074
30
0
10
-143.87836579258231
20
4.0906084504586904
30
0
10
-146.29069467366531
20
-10.826730890263478
30
0
10
-147.40321104340364
20
-17.70630039657572
30
0
10
-148.84209148873973
20
-23.796713453814213
30
0
10
-149.2318126157449
20
-28.851770058682504
30
0
10
-149.39062751839225
20
-30.911751586366538
30
0
10
-149.38224724869653
20
-32.857956396300814
30
0
10
-149.03560466157282
20
-34.643402152971518
30
0
10
-148.81545457155821
20
-35.777325273349554
30
0
10
-148.44493356817463
20
-36.904663035752812
30
0
10
-147.83082618259965
20
-37.947636495773871
30
0
10
-147.24958508676198
20
-38.934791268818302
30
0
10
-146.48976773643153
20
-39.771363905722581
30
0
10
-145.57985877690928
20
-40.452348962305827
30
0
10
-144.56345555619365
20
-41.213035399698242
30
0
10
-143.28460131884165
20
-41.841647218582295
30
0
10
-141.67073587932396
20
-42.296450041899746
30
0
10
-139.4521666993123
20
-42.921664202936554
30
0
10
-137.02196269585554
20
-43.1062457305298
30
0
10
-134.80983672085935
20
-43.10931956044432
30
0
0
ARC
5
135
100
AcDbEntity
8
0
100
AcDbCircle
10
-134.55746092680599
20
-32.642361718808772
30
0
40
10.470000000000006
210
0
220
0
230
1
100
AcDbArc
50
268.61877091529527
51
279.21056266409943
0
SPLINE
5
136
100
AcDbEntity
8
0
100
AcDbSpline
70
0
71
3
72
23
73
19
74
0
42
0.000000001
43
0.0000000001
44
0.0000000001
40
-35.689297132753701
40
-35.689297132753701
40
-35.689297132753701
40
-35.689297132753701
40
-32.297636363275572
40
-32.297636363275572
40
-32.297636363275572
40
-25.05003327078775
40
-25.05003327078775
40
-25.05003327078775
40
-16.192483430707227
40
-16.192483430707227
40
-16.192483430707227
40
-8.286355634435294
40
-8.286355634435294
40
-8.286355634435294
40
-3.764228909696139
40
-3.764228909696139
40
-3.764228909696139
40
0
40
0
40
0
40
0
10
-132.88159957073754
20
-42.977369639233459
30
0
10
-120.04857864390461
20
-40.896445849093546
30
0
10
-105.85424097476474
20
-40.851902642094551
30
0
10
-96.640331993278963
20
-41.138921060684964
30
0
10
-76.954831198136901
20
-41.752135421575147
30
0
10
-63.326889625214022
20
-44.476204586547972
30
0
10
-48.484492108103971
20
-47.612981723634974
30
0
10
-30.343755139404642
20
-51.446826552796011
30
0
10
-14.649504092824159
20
-54.964859161623053
30
0
10
5.2632966321744945
20
-53.816130156878657
30
0
10
23.033513766321789
20
-52.791002445086022
30
0
10
39.147642070057387
20
-48.451416997213045
30
0
10
56.896272697015107
20
-45.332703687902658
30
0
10
67.048933460855622
20
-43.548721649253956
30
0
10
77.969074401519549
20
-42.103668348303962
30
0
10
93.176616581457168
20
-41.675779050275651
30
0
10
105.83516023302856
20
-41.319610032755051
30
0
10
120.63951709313024
20
-41.700497556002453
30
0
10
133.02472768042307
20
-43.18391460134378
30
0
0
ARC
5
137
100
AcDbEntity
8
0
100
AcDbCircle
10
134.26985444697374
20
-32.788215522628384
30
0
40
10.469999999999276
210
0
220
0
230
1
100
AcDbArc
50
263.17003376875374
51
270.93504151817996
0
SPLINE
5
138
100
AcDbEntity
8
0
100
AcDbSpline
70
0
71
3
72
41
73
37
74
0
42
0.000000001
43
0.0000000001
44
0.0000000001
40
-13.651095453394547
40
-13.651095453394547
40
-13.651095453394547
40
-13.651095453394547
40
-12.615768422351232
40
-12.615768422351232
40
-12.615768422351232
40
-12.05723889989884
40
-12.05723889989884
40
-12.05723889989884
40
-11.592641196977134
40
-11.592641196977134
40
-11.592641196977134
40
-11.038312864785707
40
-11.038312864785707
40
-11.038312864785707
40
-9.3737557060392689
40
-9.3737557060392689
40
-9.3737557060392689
40
-8.4897839945830409
40
-8.4897839945830409
40
-8.4897839945830409
40
-4.546469655116117
40
-4.546469655116117
40
-4.546469655116117
40
-2.9393027753323007
40
-2.9393027753323007
40
-2.9393027753323007
40
-2.1500510428830895
40
-2.1500510428830895
40
-2.1500510428830895
40
-1.5361938894451452
40
-1.5361938894451452
40
-1.5361938894451452
40
-0.85301615102271167
40
-0.85301615102271167
40
-0.85301615102271167
40
-0.00036967636779397457
40
-0.00036967636779397457
40
-0.00036967636779397457
40
-0.00036967636779397457
10
134.44071258401669
20
-43.25682132746217
30
0
10
136.67639283562528
20
-43.256336617986655
30
0
10
139.13980854813184
20
-43.070347521224626
30
0
10
141.38192919545452
20
-42.425668466833798
30
0
10
142.59114037721659
20
-42.077982840661946
30
0
10
143.80285627646765
20
-41.577626472353948
30
0
10
144.8924037590715
20
-40.828261285142261
30
0
10
145.7984195811826
20
-40.205124866589429
30
0
10
146.57996262633992
20
-39.432337589572093
30
0
10
147.19783524670305
20
-38.502586338002843
30
0
10
147.93514328535474
20
-37.393113205295123
30
0
10
148.37323678070959
20
-36.166629083863107
30
0
10
148.62740425046718
20
-34.923304039911685
30
0
10
149.39062751839225
20
-31.18980264399049
30
0
10
148.71295729612461
20
-26.565601564963277
30
0
10
147.7503234417901
20
-21.166435648931884
30
0
10
147.23911174127835
20
-18.299180589439253
30
0
10
146.63792410404739
20
-15.216733089904393
30
0
10
146.09554077407438
20
-11.955365032892722
30
0
10
143.67819153423505
20
2.5802321320223065
30
0
10
144.24753378458405
20
11.328237091332518
30
0
10
146.45588280095666
20
23.107709638746037
30
0
10
147.35695384558639
20
27.914079263651857
30
0
10
148.29514613580145
20
32.118518740739013
30
0
10
148.49056056726704
20
35.846444554853136
30
0
10
148.58650863144453
20
37.676848085332864
30
0
10
148.50541871456124
20
39.440090418104027
30
0
10
148.09482224454024
20
41.106533963397077
30
0
10
147.77541328631338
20
42.40288460352491
30
0
10
147.25415546947985
20
43.632873050341125
30
0
10
146.47577255872852
20
44.751838375113849
30
0
10
145.60925719553879
20
45.997498616878858
30
0
10
144.50204636894506
20
46.994089107999962
30
0
10
143.26061534523768
20
47.790182378557702
30
0
10
141.71448630235574
20
48.781669543729656
30
0
10
139.65554269097089
20
49.668941146918392
30
0
10
136.78757136348389
20
50.301525505651369
30
0
0
ARC
5
139
100
AcDbEntity
8
0
100
AcDbCircle
10
133.5541206676146
20
36.135873505206504
30
0
40
14.530000000011151
210
0
220
-0
230
1
100
AcDbArc
50
77.141961140859479
51
78.831263163057486
0
SPLINE
5
140
100
AcDbEntity
8
0
100
AcDbSpline
70
0
71
3
72
17
73
13
74
0
42
0.000000001
43
0.0000000001
44
0.0000000001
40
-22.636085612984711
40
-22.636085612984711
40
-22.636085612984711
40
-22.636085612984711
40
-17.043718502080743
40
-17.043718502080743
40
-17.043718502080743
40
-10.295633202138085
40
-10.295633202138085
40
-10.295633202138085
40
-5.6830387588748055
40
-5.6830387588748055
40
-5.6830387588748055
40
-0.10008416671386941
40
-0.10008416671386941
40
-0.10008416671386941
40
-0.10008416671386941
10
136.36856813915165
20
50.390689723954239
30
0
10
113.20098539092143
20
54.964859161623039
30
0
10
90.370021036483195
20
51.817159622280336
30
0
10
71.269164296676095
20
48.275972309032625
30
0
10
48.219406760585812
20
44.002681845043597
30
0
10
26.13152220237648
20
38.270429979372402
30
0
10
-0.20015506591931853
20
37.973499913952587
30
0
10
-18.198954138835326
20
37.770535836436963
30
0
10
-34.145227681390296
20
40.147925710011016
30
0
10
-50.591340052707707
20
43.363749413292744
30
0
10
-70.497090826120896
20
47.256060478879405
30
0
10
-89.085956565291156
20
51.993388439443969
30
0
10
-107.81582378653266
20
52.880819952569958
30
0
0
SPLINE
5
141
100
AcDbEntity
8
0
100
AcDbSpline
70
0
71
3
72
16
73
12
74
0
42
0.000000001
43
0.0000000001
44
0.0000000001
40
0
40
0
40
0
40
0
40
0.039064447338693194
40
0.039064447338693194
40
0.078128894677385582
40
0.078128894677385582
40
0.11719334201607801
40
0.11719334201607801
40
0.13971135050427938
40
0.13971135050427938
40
0.16222935899248325
40
0.16222935899248325
40
0.16222935899248325
40
0.16222935899248325
10
-108.86315124868662
20
51.881940524743875
30
0
10
-108.86315124868716
20
52.012155349206182
30
0
10
-108.83771739792306
20
52.14112524897417
30
0
10
-108.73884518525412
20
52.382056541256759
30
0
10
-108.66635209559195
20
52.49171449929942
30
0
10
-108.48341278689477
20
52.677070403905681
30
0
10
-108.3747155673606
20
52.750996246994461
30
0
10
-108.18584866364951
20
52.831414266472166
30
0
10
-108.11369658943531
20
52.852950843991067
30
0
10
-107.96593779076235
20
52.879471945113046
30
0
10
-107.89079970464726
20
52.884372353218339
30
0
10
-107.81582378653262
20
52.880819952569979
30
0
0
LINE
5
142
100
AcDbEntity
8
0
100
AcDbLine
10
-108.86315124868662
20
51.881940524743875
30
0
11
-108.86315124871409
21
44.317077595611217
31
0
0
ARC
5
143
100
AcDbEntity
8
0
100
AcDbCircle
10
-106.86315124865594
20
44.317077595619338
30
0
40
2.0000000000581508
210
0
220
0
230
1
100
AcDbArc
50
180
51
270
0
LINE
5
144
100
AcDbEntity
8
0
100
AcDbLine
10
-106.86315124865594
20
42.317077595561187
30
0
11
-85.234844010175948
21
42.317077595619395
31
0
0
ARC
5
145
100
AcDbEntity
8
0
100
AcDbCircle
10
-85.234844010175806
20
42.117077595623009
30
0
40
0.19999999999639073
210
0
220
-0
230
1
100
AcDbArc
50
82.227224868437503
51
90.000000000040714
0
LINE
5
146
100
AcDbEntity
8
0
100
AcDbLine
10
-85.207795052210741
20
42.315240038763882
30
0
11
-3.8003408589616328
21
31.203211081208757
31
0
0
LINE
5
147
100
AcDbEntity
8
0
100
AcDbLine
10
-3.8003408589616328
20
31.203211081208757
30
0
11
75.408596382208302
21
42.313232377930767
31
0
0
ARC
5
148
100
AcDbEntity
8
0
100
AcDbCircle
10
75.436376887232086
20
42.115171166326235
30
0
40
0.2000000000040798
210
0
220
-0
230
1
100
AcDbArc
50
89.997754213392227
51
97.984345091059964
0
LINE
5
149
100
AcDbEntity
8
0
100
AcDbLine
10
75.436384726506205
20
42.315171166176675
30
0
11
124.4658548182769
21
42.313249388795036
31
0
0
ARC
5
150
100
AcDbEntity
8
0
100
AcDbCircle
10
124.46584697900249
20
42.113249388948695
30
0
40
0.19999999999996021
210
-0
220
0
230
1
100
AcDbArc
50
0
51
89.997754213310756
0
LINE
5
151
100
AcDbEntity
8
0
100
AcDbLine
10
124.66584697900245
20
42.113249388948645
30
0
11
124.66584697900252
21
39.49330156950338
31
0
0
LINE
5
152
100
AcDbEntity
8
0
100
AcDbLine
10
124.66584697900252
20
39.49330156950338
30
0
11
131.8645845407228
21
39.49330156950338
31
0
0
LINE
5
153
100
AcDbEntity
8
0
100
AcDbLine
10
131.8645845407228
20
39.49330156950338
30
0
11
131.86468590622368
21
42.079394126081048
31
0
0
ARC
5
154
100
AcDbEntity
8
0
100
AcDbCircle
10
132.06468590606994
20
42.079386286802432
30
0
40
0.19999999999990692
210
0
220
-0
230
1
100
AcDbArc
50
89.999999999975572
51
179.99775421208003
0
LINE
5
155
100
AcDbEntity
8
0
100
AcDbLine
10
132.06468590607003
20
42.279386286802342
30
0
11
142.21461927098886
21
42.279386286802378
31
0
0
ARC
5
156
100
AcDbEntity
8
0
100
AcDbCircle
10
142.21461927098892
20
42.079386286802396
30
0
40
0.19999999999996021
210
-0
220
0
230
1
100
AcDbArc
50
0
51
90.000000000016286
0
ENDSEC
0
SECTION
2
OBJECTS
0
DICTIONARY
5
C
100
AcDbDictionary
3
ACAD_GROUP
350
D
3
ACAD_MLINESTYLE
350
17
0
DICTIONARY
5
D
100
AcDbDictionary
0
DICTIONARY
5
1A
330
C
100
AcDbDictionary
0
DICTIONARY
5
17
100
AcDbDictionary
0
ENDSEC
0
EOF
