0
SECTION
2
HEADER
9
$INSUNITS
70
4
9
$ACADVER
1
AC1014
9
$HANDSEED
5
FFFF
0
ENDSEC
0
SECTION
2
TABLES
0
TABLE
2
VPORT
5
8
100
AcDbSymbolTable
0
ENDTAB
0
TABLE
2
LTYPE
5
5
100
AcDbSymbolTable
0
LTYPE
5
14
100
AcDbSymbolTableRecord
100
AcDbLinetypeTableRecord
2
BYBLOCK
70
0
0
LTYPE
5
15
100
AcDbSymbolTableRecord
100
AcDbLinetypeTableRecord
2
BYLAYER
70
0
0
ENDTAB
0
TABLE
2
LAYER
5
2
100
AcDbSymbolTable
70
2
0
LAYER
5
50
100
AcDbSymbolTableRecord
100
AcDbLayerTableRecord
2
0
70
0
6
CONTINUOUS
0
ENDTAB
0
TABLE
2
STYLE
5
3
100
AcDbSymbolTable
70
1
0
STYLE
5
11
100
AcDbSymbolTableRecord
100
AcDbTextStyleTableRecord
2
STANDARD
70
0
0
ENDTAB
0
TABLE
2
VIEW
5
6
100
AcDbSymbolTable
70
0
0
ENDTAB
0
TABLE
2
UCS
5
7
100
AcDbSymbolTable
70
0
0
ENDTAB
0
TABLE
2
APPID
5
9
100
AcDbSymbolTable
70
2
0
APPID
5
12
100
AcDbSymbolTableRecord
100
AcDbRegAppTableRecord
2
ACAD
70
0
0
ENDTAB
0
TABLE
2
DIMSTYLE
5
A
100
AcDbSymbolTable
70
1
0
ENDTAB
0
TABLE
2
BLOCK_RECORD
5
1
100
AcDbSymbolTable
70
1
0
BLOCK_RECORD
5
1F
100
AcDbSymbolTableRecord
100
AcDbBlockTableRecord
2
*MODEL_SPACE
0
BLOCK_RECORD
5
1B
100
AcDbSymbolTableRecord
100
AcDbBlockTableRecord
2
*PAPER_SPACE
0
ENDTAB
0
ENDSEC
0
SECTION
2
BLOCKS
0
BLOCK
5
20
100
AcDbEntity
100
AcDbBlockBegin
2
*MODEL_SPACE
0
ENDBLK
5
21
100
AcDbEntity
100
AcDbBlockEnd
0
BLOCK
5
1C
100
AcDbEntity
100
AcDbBlockBegin
2
*PAPER_SPACE
0
ENDBLK
5
1D
100
AcDbEntity
100
AcDbBlockEnd
0
ENDSEC
0
SECTION
2
ENTITIES
0
CIRCLE
5
100
100
AcDbEntity
8
0
100
AcDbCircle
10
139.69241388658088
20
-26.600182804283445
30
0
40
1.4500000000000313
210
0
220
0
230
1
0
CIRCLE
5
101
100
AcDbEntity
8
0
100
AcDbCircle
10
139.69241388658088
20
-32.350182804283463
30
0
40
1.4500000000000313
210
0
220
0
230
1
0
CIRCLE
5
102
100
AcDbEntity
8
0
100
AcDbCircle
10
139.69241388658088
20
-38.100182804283442
30
0
40
1.4500000000000313
210
0
220
0
230
1
0
CIRCLE
5
103
100
AcDbEntity
8
0
100
AcDbCircle
10
-141.63503219901631
20
35.691845262678228
30
0
40
0.95000000000000639
210
0
220
0
230
1
0
CIRCLE
5
104
100
AcDbEntity
8
0
100
AcDbCircle
10
134.38244727439741
20
-46.341264612508681
30
0
40
0.94999999999998863
210
0
220
0
230
1
0
CIRCLE
5
105
100
AcDbEntity
8
0
100
AcDbCircle
10
-134.33158611341878
20
-46.487108218169524
30
0
40
0.95000000000000639
210
0
220
0
230
1
0
CIRCLE
5
106
100
AcDbEntity
8
0
100
AcDbCircle
10
-3.6265861134194566
20
48.445817195716458
30
0
40
0.94999999999998863
210
0
220
0
230
1
0
CIRCLE
5
107
100
AcDbEntity
8
0
100
AcDbCircle
10
87.088717949054455
20
-46.460474704894928
30
0
40
0.94999999999998863
210
0
220
0
230
1
0
CIRCLE
5
108
100
AcDbEntity
8
0
100
AcDbCircle
10
-88.637854782125558
20
-46.466218296103186
30
0
40
0.94999999999998863
210
0
220
0
230
1
0
CIRCLE
5
109
100
AcDbEntity
8
0
100
AcDbCircle
10
141.59668440193923
20
35.84556829033631
30
0
40
0.94999999999998863
210
0
220
0
230
1
0
ARC
5
110
100
AcDbEntity
8
0
100
AcDbCircle
10
134.44360919251611
20
32.125256746424277
30
0
40
10.470000000000132
210
0
220
-0
230
1
100
AcDbArc
50
89.064958482365356
51
96.829966231246203
0
SPLINE
5
111
100
AcDbEntity
8
0
100
AcDbSpline
70
0
71
3
72
44
73
40
74
0
42
0.000000001
43
0.0000000001
44
0.0000000001
40
0.00036944025650122387
40
0.00036944025650122387
40
0.00036944025650122387
40
0.00036944025650122387
40
0.64246135683468841
40
0.64246135683468841
40
0.64246135683468841
40
1.0533817424255336
40
1.0533817424255336
40
1.0533817424255336
40
1.4202758804396911
40
1.4202758804396911
40
1.4202758804396911
40
1.8875789591493819
40
1.8875789591493819
40
1.8875789591493819
40
2.8267217594689384
40
2.8267217594689384
40
2.8267217594689384
40
4.156647077820951
40
4.156647077820951
40
4.156647077820951
40
4.3926328139228561
40
4.3926328139228561
40
4.3926328139228561
40
5.9676860160265059
40
5.9676860160265059
40
5.9676860160265059
40
6.5428579857169771
40
6.5428579857169771
40
6.5428579857169771
40
6.8894070624633095
40
6.8894070624633095
40
6.8894070624633095
40
7.1953750547584256
40
7.1953750547584256
40
7.1953750547584256
40
7.5943805459250067
40
7.5943805459250067
40
7.5943805459250067
40
8.2036670544052459
40
8.2036670544052459
40
8.2036670544052459
40
8.2036670544052459
10
136.96132672450685
20
-50.964484141364366
30
0
10
139.12312992298465
20
-50.487652750538217
30
0
10
141.38326535267109
20
-49.746117751959808
30
0
10
143.34267554573881
20
-48.511429266705591
30
0
10
144.59629653178385
20
-47.721481658073664
30
0
10
145.71913462504907
20
-46.729542975668529
30
0
10
146.60084206199772
20
-45.484170120587642
30
0
10
147.38786497074744
20
-44.372534984248347
30
0
10
147.91930030863372
20
-43.147788373238704
30
0
10
148.2475955834332
20
-41.853417300057146
30
0
10
148.66566235792516
20
-40.205103781408205
30
0
10
148.75706315638342
20
-38.461205859598515
30
0
10
148.67145067382143
20
-36.652436013610455
30
0
10
148.49936604000521
20
-33.016733750461434
30
0
10
147.6053455689281
20
-28.926669525185204
30
0
10
146.72294940736865
20
-24.265884943025124
30
0
10
145.47338160565789
20
-17.665713049388387
30
0
10
144.38275835212804
20
-10.74295874382007
30
0
10
144.78628103848718
20
-1.8541206989274528
30
0
10
144.85788325396771
20
-0.27685994364161637
30
0
10
144.97251060073739
20
1.2701147881554142
30
0
10
145.11914540773776
20
2.7851174053715333
30
0
10
146.09783855301356
20
12.896786707329788
30
0
10
148.51853958082035
20
21.552325119599796
30
0
10
149.03007680966741
20
28.382413226555773
30
0
10
149.21687277284991
20
30.876528639105587
30
0
10
149.14681942475741
20
33.085373557500603
30
0
10
148.61972837590574
20
35.025559854573146
30
0
10
148.30211041769229
20
36.194689953770194
30
0
10
147.79928463869271
20
37.317452682106889
30
0
10
147.03111923151948
20
38.315323262176399
30
0
10
146.35289155383757
20
39.196361954921102
30
0
10
145.52321495772634
20
39.906704274168263
30
0
10
144.59536228420606
20
40.469418180902451
30
0
10
143.38494309657901
20
41.203499926090991
30
0
10
142.05063536236975
20
41.667299796823308
30
0
10
140.74123154176971
20
41.974866232576019
30
0
10
138.74147518499595
20
42.444589877299201
30
0
10
136.60251406637099
20
42.593431531728754
30
0
10
134.61446732945947
20
42.593862551260138
30
0
0
ARC
5
112
100
AcDbEntity
8
0
100
AcDbCircle
10
133.72787541315699
20
-36.798832281410611
30
0
40
14.530000000010833
210
-0
220
0
230
1
100
AcDbArc
50
281.16873683694251
51
282.858041348575
0
SPLINE
5
113
100
AcDbEntity
8
0
100
AcDbSpline
70
0
71
3
72
20
73
16
74
0
42
0.000000001
43
0.0000000001
44
0.0000000001
40
0
40
0
40
0
40
0
40
3.938633359216869
40
3.938633359216869
40
3.938633359216869
40
12.060997201123428
40
12.060997201123428
40
12.060997201123428
40
19.258841904367962
40
19.258841904367962
40
19.258841904367962
40
25.242889721455985
40
25.242889721455985
40
25.242889721455985
40
29.702972671887398
40
29.702972671887398
40
29.702972671887398
40
29.702972671887398
10
-136.65688141343327
20
-51.169331160452913
30
0
10
-123.72857024031327
20
-54.196814874882449
30
0
10
-111.13003931817826
20
-54.094749289674546
30
0
10
-99.761441675126264
20
-52.955351368882909
30
0
10
-76.31542954222418
20
-50.605515591960064
30
0
10
-52.840782463643556
20
-43.290189351841526
30
0
10
-26.424705561007436
20
-40.126822106670879
30
0
10
-3.0171773433942661
20
-37.323733354055378
30
0
10
15.767963999655521
20
-38.647505928079376
30
0
10
37.484105887916748
20
-42.398191706124997
30
0
10
55.53931582363635
20
-45.516582600510247
30
0
10
72.594513695374133
20
-49.769530544695286
30
0
10
90.598668253819852
20
-51.949865901627945
30
0
10
104.0178860500902
20
-53.574957206449206
30
0
10
120.0903428335958
20
-54.301900385418939
30
0
10
136.54232288469404
20
-51.053648500158346
30
0
0
ARC
5
114
100
AcDbEntity
8
0
100
AcDbCircle
10
-139.51494255175166
20
-63.374154450463045
30
0
40
12.535000000428374
210
0
220
-0
230
1
100
AcDbArc
50
76.820267167407579
51
77.479054358699571
0
SPLINE
5
115
100
AcDbEntity
8
0
100
AcDbSpline
70
0
71
3
72
44
73
40
74
0
42
0.000000001
43
0.0000000001
44
0.0000000001
40
0.0011569123809317828
40
0.0011569123809317828
40
0.0011569123809317828
40
0.0011569123809317828
40
0.64767109587064975
40
0.64767109587064975
40
0.64767109587064975
40
1.1183297484591057
40
1.1183297484591057
40
1.1183297484591057
40
1.5392291848282806
40
1.5392291848282806
40
1.5392291848282806
40
1.9838733744903625
40
1.9838733744903625
40
1.9838733744903625
40
2.6842893107569221
40
2.6842893107569221
40
2.6842893107569221
40
4.4026394906493405
40
4.4026394906493405
40
4.4026394906493405
40
7.4232852399423983
40
7.4232852399423983
40
7.4232852399423983
40
7.9622909519267973
40
7.9622909519267973
40
7.9622909519267973
40
9.6295477130328635
40
9.6295477130328635
40
9.6295477130328635
40
10.238034756020284
40
10.238034756020284
40
10.238034756020284
40
10.790713465587473
40
10.790713465587473
40
10.790713465587473
40
11.297083943873863
40
11.297083943873863
40
11.297083943873863
40
11.888036356763164
40
11.888036356763164
40
11.888036356763164
40
11.888036356763164
10
-134.63608197531715
20
42.44636078424022
30
0
10
-136.84820795031334
20
42.4432869543257
30
0
10
-139.27841195376993
20
42.258705426732448
30
0
10
-141.49698113378159
20
41.633491265695639
30
0
10
-143.11084657329928
20
41.178688442378188
30
0
10
-144.38970081065128
20
40.550076623494149
30
0
10
-145.40610403136691
20
39.789390186101713
30
0
10
-146.31601299088913
20
39.108405129518474
30
0
10
-147.07583034121964
20
38.271832492614209
30
0
10
-147.65707143705728
20
37.284677719569778
30
0
10
-148.27117882263229
20
36.241704259548726
30
0
10
-148.64169982601589
20
35.114366497145454
30
0
10
-148.86184991603048
20
33.980443376767397
30
0
10
-149.20849250315416
20
32.194997620096721
30
0
10
-149.21687277284991
20
30.248792810162449
30
0
10
-149.05805787020259
20
28.188811282478397
30
0
10
-148.66833674319739
20
23.13375467761011
30
0
10
-147.2294562978613
20
17.043341620371617
30
0
10
-146.11693992812297
20
10.163772114059384
30
0
10
-144.16230857916221
20
-1.9232610210624657
30
0
10
-144.26665905531132
20
-10.387812392069247
30
0
10
-146.14054037710386
20
-21.277434266838846
30
0
10
-146.47514863280816
20
-23.221931678932492
30
0
10
-146.83376818155241
20
-25.075692378757822
30
0
10
-147.17311361664019
20
-26.84321723279038
30
0
10
-148.22277961909799
20
-32.310539188358256
30
0
10
-149.12370139809335
20
-36.950366616023736
30
0
10
-148.42025353344968
20
-40.968461676163301
30
0
10
-148.16352099697463
20
-42.434918237389859
30
0
10
-147.67731435527062
20
-43.851954959290104
30
0
10
-146.85917998230696
20
-45.149069089324641
30
0
10
-146.1159514512994
20
-46.327423478619536
30
0
10
-145.16029284014883
20
-47.307952503389011
30
0
10
-144.06183139685069
20
-48.116569784217724
30
0
10
-143.05533306532135
20
-48.85748968538077
30
0
10
-141.95470414982142
20
-49.438035744936528
30
0
10
-140.83309245569839
20
-49.90199388838117
30
0
10
-139.52408562757404
20
-50.443468608121648
30
0
10
-138.1517209920024
20
-50.840269696130179
30
0
10
-136.79739766476916
20
-51.137273465358753
30
0
0
ARC
5
116
100
AcDbEntity
8
0
100
AcDbCircle
10
-134.38370618126359
20
31.979402942604672
30
0
40
10.470000000000205
210
0
220
-0
230
1
100
AcDbArc
50
80.789437335900288
51
91.381229084705609
0
SPLINE
5
117
100
AcDbEntity
8
0
100
AcDbSpline
70
0
71
3
72
23
73
19
74
0
42
0.000000001
43
0.0000000001
44
0.0000000001
40
0
40
0
40
0
40
0
40
3.764228909696139
40
3.764228909696139
40
3.764228909696139
40
8.286355634435294
40
8.286355634435294
40
8.286355634435294
40
16.192483430707227
40
16.192483430707227
40
16.192483430707227
40
25.05003327078775
40
25.05003327078775
40
25.05003327078775
40
32.297636363275572
40
32.297636363275572
40
32.297636363275572
40
35.689297132753701
40
35.689297132753701
40
35.689297132753701
40
35.689297132753701
10
133.19848242596552
20
42.520955825139673
30
0
10
120.81327183867262
20
41.037538779798346
30
0
10
106.00891497857094
20
40.656651256550944
30
0
10
93.350371326999493
20
41.012820274071551
30
0
10
78.142829147061803
20
41.440709572099863
30
0
10
67.222688206398004
20
42.885762873049842
30
0
10
57.070027442557425
20
44.669744911698544
30
0
10
39.321396815599741
20
47.788458221008945
30
0
10
23.207268511864179
20
52.128043668881922
30
0
10
5.4370513777169194
20
53.153171380674557
30
0
10
-14.47574934728177
20
54.301900385418946
30
0
10
-30.170000393862324
20
50.783867776591904
30
0
10
-48.310737362561618
20
46.950022947430867
30
0
10
-63.153134879671597
20
43.813245810343872
30
0
10
-76.78107645259459
20
41.08917664537104
30
0
10
-96.466577247736609
20
40.475962284480858
30
0
10
-105.68048622922237
20
40.188943865890451
30
0
10
-119.87482389836229
20
40.233487072889446
30
0
10
-132.7078448251952
20
42.314410863029359
30
0
0
LINE
5
118
100
AcDbEntity
8
0
100
AcDbLine
10
-16.36302446012067
20
-13.259202982337461
30
0
11
-19.939659737796234
21
-13.761887550975054
31
0
0
ARC
5
119
100
AcDbEntity
8
0
100
AcDbCircle
10
-16.521340428813858
20
-12.132773977003826
30
0
40
1.1375000000000819
210
-0
220
0
230
1
100
AcDbArc
50
-81.999666002873639
51
7.9986558632630826
0
LINE
5
120
100
AcDbEntity
8
0
100
AcDbLine
10
-17.887465520688934
20
5.7640053961267856
30
0
11
-15.394906787053095
21
-11.974491000313972
31
0
0
LINE
5
121
100
AcDbEntity
8
0
100
AcDbLine
10
-9.5831253208855927
20
6.9322319169127589
30
0
11
-17.887465520688934
21
5.7640053961267856
31
0
0
ARC
5
122
100
AcDbEntity
8
0
100
AcDbCircle
10
-9.741584710426423
20
8.0586407555971729
30
0
40
1.1375000000000099
210
-0
220
0
230
1
100
AcDbArc
50
-81.992370840218783
51
7.9974365850278302
0
LINE
5
123
100
AcDbEntity
8
0
100
AcDbLine
10
-13.752206174492088
20
44.780839753571307
30
0
11
-8.6151477005926225
21
8.216899761270513
31
0
0
ARC
5
124
100
AcDbEntity
8
0
100
AcDbCircle
10
-14.878643184325888
20
44.622580747898041
30
0
40
1.1375000000000026
210
0
220
-0
230
1
100
AcDbArc
50
7.9974365850240803
51
97.999541355548089
0
LINE
5
125
100
AcDbEntity
8
0
100
AcDbLine
10
-75.184085370353586
20
37.296373408169174
30
0
11
-15.036943569753767
21
45.749011943299422
31
0
0
ARC
5
126
100
AcDbEntity
8
0
100
AcDbCircle
10
-75.025784984925608
20
36.169942212767808
30
0
40
1.1374999999999964
210
0
220
0
230
1
100
AcDbArc
50
97.999541355553134
51
188.00270876779064
0
LINE
5
127
100
AcDbEntity
8
0
100
AcDbLine
10
-73.65845256006881
20
18.273676476731659
30
0
11
-76.152207427479865
21
36.011579556468888
31
0
0
LINE
5
128
100
AcDbEntity
8
0
100
AcDbLine
10
-89.037586113418783
20
16.111855979334727
30
0
11
-73.65845256006881
21
18.273676476731659
31
0
0
LINE
5
129
100
AcDbEntity
8
0
100
AcDbLine
10
-89.037586113418783
20
34.228117664642703
30
0
11
-89.037586113418783
21
16.111855979334727
31
0
0
ARC
5
130
100
AcDbEntity
8
0
100
AcDbCircle
10
-90.175086113418814
20
34.228117664642674
30
0
40
1.1375000000000313
210
0
220
-0
230
1
100
AcDbArc
50
0
51
89.999999999999304
0
LINE
5
131
100
AcDbEntity
8
0
100
AcDbLine
10
-136.62308611341876
20
35.365617664642713
30
0
11
-90.175086113418786
21
35.365617664642706
31
0
0
ARC
5
132
100
AcDbEntity
8
0
100
AcDbCircle
10
-136.62308611341871
20
34.228117664642681
30
0
40
1.1375000000000313
210
0
220
0
230
1
100
AcDbArc
50
90.000000000002856
51
180
0
LINE
5
133
100
AcDbEntity
8
0
100
AcDbLine
10
-137.76058611341873
20
16.126717664642712
30
0
11
-137.76058611341875
21
34.228117664642703
31
0
0
LINE
5
134
100
AcDbEntity
8
0
100
AcDbLine
10
-138.71908611341877
20
16.126717664642712
30
0
11
-137.76058611341873
21
16.126717664642712
31
0
0
ARC
5
135
100
AcDbEntity
8
0
100
AcDbCircle
10
-138.71908611341877
20
14.989217664642705
30
0
40
1.1375000000000091
210
0
220
-0
230
1
100
AcDbArc
50
90
51
180
0
LINE
5
136
100
AcDbEntity
8
0
100
AcDbLine
10
-139.85658611341879
20
-2.8864823353572966
30
0
11
-139.85658611341879
21
14.989217664642709
31
0
0
ARC
5
137
100
AcDbEntity
8
0
100
AcDbCircle
10
-138.71908611341877
20
-2.8864823353572966
30
0
40
1.1375000000000313
210
0
220
0
230
1
100
AcDbArc
50
180
51
270
0
LINE
5
138
100
AcDbEntity
8
0
100
AcDbLine
10
-136.90458611341879
20
-4.023982335357319
30
0
11
-138.71908611341877
21
-4.0239823353573279
31
0
0
LINE
5
139
100
AcDbEntity
8
0
100
AcDbLine
10
-136.90458611341879
20
-22.127982335357281
30
0
11
-136.90458611341879
21
-4.023982335357319
31
0
0
ARC
5
140
100
AcDbEntity
8
0
100
AcDbCircle
10
-135.76708611341874
20
-22.127982335357281
30
0
40
1.1375000000000313
210
0
220
0
230
1
100
AcDbArc
50
180
51
270
0
LINE
5
141
100
AcDbEntity
8
0
100
AcDbLine
10
-134.33158611341878
20
-23.265482335357301
30
0
11
-135.76708611341874
21
-23.265482335357312
31
0
0
LINE
5
142
100
AcDbEntity
8
0
100
AcDbLine
10
-134.33158611341878
20
-41.368182335357318
30
0
11
-134.33158611341878
21
-23.265482335357301
31
0
0
ARC
5
143
100
AcDbEntity
8
0
100
AcDbCircle
10
-133.19408611341879
20
-41.368182335357304
30
0
40
1.1374999999999957
210
0
220
0
230
1
100
AcDbArc
50
180
51
270.00000000000142
0
LINE
5
144
100
AcDbEntity
8
0
100
AcDbLine
10
-94.083918922813325
20
-42.505682335357278
30
0
11
-133.19408611341876
21
-42.505682335357299
31
0
0
ARC
5
145
100
AcDbEntity
8
0
100
AcDbCircle
10
-93.013725009943471
20
-42.120206993919808
30
0
40
1.1375000000000179
210
0
220
0
230
1
100
AcDbArc
50
199.80861705154848
51
277.98829581580299
0
LINE
5
146
100
AcDbEntity
8
0
100
AcDbLine
10
-18.425217408146644
20
-32.801658975352524
30
0
11
-92.855645714122943
21
-43.246669237509423
31
0
0
ARC
5
147
100
AcDbEntity
8
0
100
AcDbCircle
10
-18.5832967039671
20
-31.675196731762966
30
0
40
1.1374999999999644
210
-0
220
0
230
1
100
AcDbArc
50
-82.011704184200269
51
7.960410411829022
0
LINE
5
148
100
AcDbEntity
8
0
100
AcDbLine
10
-19.939659737796234
20
-13.761887550975054
30
0
11
-17.456757657846254
21
-31.517665694931949
31
0
0
ARC
5
149
100
AcDbEntity
8
0
100
AcDbCircle
10
2.2285069828871329
20
-12.634600705572199
30
0
40
1.1375000000000559
210
0
220
-0
230
1
100
AcDbArc
50
82.000235590350044
51
171.99729123220629
0
LINE
5
150
100
AcDbEntity
8
0
100
AcDbLine
10
2.3868117535425526
20
-11.508170126447208
30
0
11
5.9752537365395852
21
-12.012477711536027
31
0
0
LINE
5
151
100
AcDbEntity
8
0
100
AcDbLine
10
5.9752537365395852
20
-12.012477711536027
30
0
11
8.4755153271511219
21
5.7625871381091631
31
0
0
LINE
5
152
100
AcDbEntity
8
0
100
AcDbLine
10
8.4755153271511219
20
5.7625871381091631
30
0
11
0.16863167628361708
21
6.9309317779750668
31
0
0
ARC
5
153
100
AcDbEntity
8
0
100
AcDbCircle
10
0.32705919519049331
20
8.0573450996527374
30
0
40
1.1374999999999584
210
0
220
0
230
1
100
AcDbArc
50
171.99729123220379
51
261.99399196491083
0
LINE
5
154
100
AcDbEntity
8
0
100
AcDbLine
10
-0.7993632473637291
20
8.2157077559517688
30
0
11
4.3413163878710392
21
44.781000650369151
31
0
0
ARC
5
155
100
AcDbEntity
8
0
100
AcDbCircle
10
5.4677388304252261
20
44.622637994070274
30
0
40
1.1374999999999016
210
0
220
-0
230
1
100
AcDbArc
50
81.999158784816174
51
171.9972912322109
0
LINE
5
156
100
AcDbEntity
8
0
100
AcDbLine
10
5.626064770965904
20
45.749065597847675
30
0
11
70.486793810195138
21
36.632513504439537
31
0
0
ARC
5
157
100
AcDbEntity
8
0
100
AcDbCircle
10
70.328467869654673
20
35.506085900662306
30
0
40
1.1374999999997053
210
-0
220
0
230
1
100
AcDbArc
50
-7.9979155718837678
51
81.999158784825568
0
LINE
5
158
100
AcDbEntity
8
0
100
AcDbLine
10
71.454903556419708
20
35.34781747809636
30
0
11
68.962576138564231
21
17.609304001649654
31
0
0
LINE
5
159
100
AcDbEntity
8
0
100
AcDbLine
10
68.962576138564231
20
17.609304001649654
30
0
11
78.431277217583045
21
16.278527664642731
31
0
0
LINE
5
160
100
AcDbEntity
8
0
100
AcDbLine
10
78.431277217583045
20
16.278527664642731
30
0
11
89.028413886581205
21
16.278527664642731
31
0
0
LINE
5
161
100
AcDbEntity
8
0
100
AcDbLine
10
89.028413886581205
20
16.278527664642731
30
0
11
89.028413886581205
21
34.379927664642764
31
0
0
ARC
5
162
100
AcDbEntity
8
0
100
AcDbCircle
10
90.165913886581109
20
34.37992766464285
30
0
40
1.1374999999998892
210
0
220
-0
230
1
100
AcDbArc
50
89.999999999997144
51
180
0
LINE
5
163
100
AcDbEntity
8
0
100
AcDbLine
10
90.165913886581166
20
35.517427664642739
30
0
11
136.61391388658114
21
35.517427664642817
31
0
0
ARC
5
164
100
AcDbEntity
8
0
100
AcDbCircle
10
136.61391388658114
20
34.379927664642643
30
0
40
1.1375000000001734
210
0
220
-0
230
1
100
AcDbArc
50
0
51
90
0
LINE
5
165
100
AcDbEntity
8
0
100
AcDbLine
10
137.7514138865813
20
34.379927664642764
30
0
11
137.75141388658125
21
16.278527664642699
31
0
0
LINE
5
166
100
AcDbEntity
8
0
100
AcDbLine
10
137.75141388658125
20
16.278527664642695
30
0
11
138.71291388658119
21
16.278527664642741
31
0
0
ARC
5
167
100
AcDbEntity
8
0
100
AcDbCircle
10
138.71291388658119
20
15.14102766464271
30
0
40
1.1375000000000313
210
0
220
-0
230
1
100
AcDbArc
50
0
51
90
0
LINE
5
168
100
AcDbEntity
8
0
100
AcDbLine
10
139.85041388658121
20
15.141027664642719
30
0
11
139.85041388658121
21
-2.73467233535726
31
0
0
ARC
5
169
100
AcDbEntity
8
0
100
AcDbCircle
10
138.71291388658125
20
-2.73467233535726
30
0
40
1.1374999999999602
210
0
220
0
230
1
100
AcDbArc
50
-90.000000000002842
51
0
0
LINE
5
170
100
AcDbEntity
8
0
100
AcDbLine
10
138.71291388658119
20
-3.8721723353572202
30
0
11
137.18341388658129
21
-3.8721723353572468
31
0
0
LINE
5
171
100
AcDbEntity
8
0
100
AcDbLine
10
137.18341388658129
20
-3.8721723353572468
30
0
11
137.18341388658129
21
-21.976172335357216
31
0
0
ARC
5
172
100
AcDbEntity
8
0
100
AcDbCircle
10
136.04591388658147
20
-21.976172335357404
30
0
40
1.1374999999998181
210
0
220
0
230
1
100
AcDbArc
50
-90.000000000007162
51
0
0
LINE
5
173
100
AcDbEntity
8
0
100
AcDbLine
10
136.04591388658133
20
-23.113672335357222
30
0
11
134.52042209599722
21
-23.113672335357222
31
0
0
LINE
5
174
100
AcDbEntity
8
0
100
AcDbLine
10
134.52042209599722
20
-23.113672335357222
30
0
11
134.52042209599679
21
-41.210041356312786
31
0
0
ARC
5
175
100
AcDbEntity
8
0
100
AcDbCircle
10
133.37742209599693
20
-41.210041356312857
30
0
40
1.142999999999857
210
-0
220
0
230
1
100
AcDbArc
50
-89.998840457925056
51
0
0
LINE
5
176
100
AcDbEntity
8
0
100
AcDbLine
10
133.37744522783322
20
-42.353041356078649
30
0
11
76.993424207777565
21
-42.35418244615267
31
0
0
ARC
5
177
100
AcDbEntity
8
0
100
AcDbCircle
10
77.634188333363852
20
-33.448657735905456
30
0
40
8.9285468599017825
210
0
220
0
230
1
100
AcDbArc
50
264.53407216617501
51
265.88458592857666
0
LINE
5
178
100
AcDbEntity
8
0
100
AcDbLine
10
76.78371029974403
20
-42.336606663739829
30
0
11
-0.41866348156162303
21
-31.46153105247673
31
0
0
ARC
5
179
100
AcDbEntity
8
0
100
AcDbCircle
10
-0.25999655243076347
20
-30.335151429259042
30
0
40
1.1374999999999271
210
0
220
0
230
1
100
AcDbArc
50
171.99729123220243
51
261.98181401896488
0
LINE
5
180
100
AcDbEntity
8
0
100
AcDbLine
10
-1.3864189949849504
20
-30.176788772959988
30
0
11
1.1020845403328039
21
-12.476238049273203
31
0
0
ENDSEC
0
SECTION
2
OBJECTS
0
DICTIONARY
5
C
100
AcDbDictionary
3
ACAD_GROUP
350
D
3
ACAD_MLINESTYLE
350
17
0
DICTIONARY
5
D
100
AcDbDictionary
0
DICTIONARY
5
1A
330
C
100
AcDbDictionary
0
DICTIONARY
5
17
100
AcDbDictionary
0
ENDSEC
0
EOF
