0
SECTION
2
HEADER
9
$INSUNITS
70
4
9
$ACADVER
1
AC1014
9
$HANDSEED
5
FFFF
0
ENDSEC
0
SECTION
2
TABLES
0
TABLE
2
VPORT
5
8
100
AcDbSymbolTable
0
ENDTAB
0
TABLE
2
LTYPE
5
5
100
AcDbSymbolTable
0
LTYPE
5
14
100
AcDbSymbolTableRecord
100
AcDbLinetypeTableRecord
2
BYBLOCK
70
0
0
LTYPE
5
15
100
AcDbSymbolTableRecord
100
AcDbLinetypeTableRecord
2
BYLAYER
70
0
0
ENDTAB
0
TABLE
2
LAYER
5
2
100
AcDbSymbolTable
70
2
0
LAYER
5
50
100
AcDbSymbolTableRecord
100
AcDbLayerTableRecord
2
0
70
0
6
CONTINUOUS
0
ENDTAB
0
TABLE
2
STYLE
5
3
100
AcDbSymbolTable
70
1
0
STYLE
5
11
100
AcDbSymbolTableRecord
100
AcDbTextStyleTableRecord
2
STANDARD
70
0
0
ENDTAB
0
TABLE
2
VIEW
5
6
100
AcDbSymbolTable
70
0
0
ENDTAB
0
TABLE
2
UCS
5
7
100
AcDbSymbolTable
70
0
0
ENDTAB
0
TABLE
2
APPID
5
9
100
AcDbSymbolTable
70
2
0
APPID
5
12
100
AcDbSymbolTableRecord
100
AcDbRegAppTableRecord
2
ACAD
70
0
0
ENDTAB
0
TABLE
2
DIMSTYLE
5
A
100
AcDbSymbolTable
70
1
0
ENDTAB
0
TABLE
2
BLOCK_RECORD
5
1
100
AcDbSymbolTable
70
1
0
BLOCK_RECORD
5
1F
100
AcDbSymbolTableRecord
100
AcDbBlockTableRecord
2
*MODEL_SPACE
0
BLOCK_RECORD
5
1B
100
AcDbSymbolTableRecord
100
AcDbBlockTableRecord
2
*PAPER_SPACE
0
ENDTAB
0
ENDSEC
0
SECTION
2
BLOCKS
0
BLOCK
5
20
100
AcDbEntity
100
AcDbBlockBegin
2
*MODEL_SPACE
0
ENDBLK
5
21
100
AcDbEntity
100
AcDbBlockEnd
0
BLOCK
5
1C
100
AcDbEntity
100
AcDbBlockBegin
2
*PAPER_SPACE
0
ENDBLK
5
1D
100
AcDbEntity
100
AcDbBlockEnd
0
ENDSEC
0
SECTION
2
ENTITIES
0
CIRCLE
5
100
100
AcDbEntity
8
0
100
AcDbCircle
10
139.73548270991608
20
-26.60204492485498
30
0
40
1.4500000000000313
210
0
220
0
230
1
0
CIRCLE
5
101
100
AcDbEntity
8
0
100
AcDbCircle
10
139.73548270991608
20
-32.352044924855001
30
0
40
1.4500000000000313
210
0
220
0
230
1
0
CIRCLE
5
102
100
AcDbEntity
8
0
100
AcDbCircle
10
139.73548270991608
20
-38.102044924854972
30
0
40
1.4500000000000313
210
0
220
0
230
1
0
CIRCLE
5
103
100
AcDbEntity
8
0
100
AcDbCircle
10
-141.5919633756811
20
35.689983142106691
30
0
40
0.95000000000000639
210
0
220
0
230
1
0
CIRCLE
5
104
100
AcDbEntity
8
0
100
AcDbCircle
10
134.42551609773261
20
-46.343126733080211
30
0
40
0.94999999999998863
210
0
220
0
230
1
0
CIRCLE
5
105
100
AcDbEntity
8
0
100
AcDbCircle
10
-134.28851729008358
20
-46.488970338741062
30
0
40
0.95000000000000639
210
0
220
0
230
1
0
CIRCLE
5
106
100
AcDbEntity
8
0
100
AcDbCircle
10
-3.5835172900842593
20
48.44395507514492
30
0
40
0.94999999999998863
210
0
220
0
230
1
0
CIRCLE
5
107
100
AcDbEntity
8
0
100
AcDbCircle
10
87.131786772389646
20
-46.462336825466465
30
0
40
0.94999999999998863
210
0
220
0
230
1
0
CIRCLE
5
108
100
AcDbEntity
8
0
100
AcDbCircle
10
-88.594785958790368
20
-46.468080416674724
30
0
40
0.94999999999998863
210
0
220
0
230
1
0
CIRCLE
5
109
100
AcDbEntity
8
0
100
AcDbCircle
10
141.63975322527443
20
35.843706169764779
30
0
40
0.94999999999998863
210
0
220
0
230
1
0
LINE
5
110
100
AcDbEntity
8
0
100
AcDbLine
10
-88.994517290083593
20
34.226255544071165
30
0
11
-88.994517290083593
21
16.109993858763193
31
0
0
ARC
5
111
100
AcDbEntity
8
0
100
AcDbCircle
10
-90.13201729008361
20
34.226255544071137
30
0
40
1.1375000000000313
210
0
220
-0
230
1
100
AcDbArc
50
0
51
89.999999999999304
0
LINE
5
112
100
AcDbEntity
8
0
100
AcDbLine
10
-136.58001729008356
20
35.363755544071182
30
0
11
-90.132017290083581
21
35.363755544071168
31
0
0
ARC
5
113
100
AcDbEntity
8
0
100
AcDbCircle
10
-136.5800172900835
20
34.226255544071151
30
0
40
1.1375000000000313
210
0
220
0
230
1
100
AcDbArc
50
90.000000000002856
51
180
0
LINE
5
114
100
AcDbEntity
8
0
100
AcDbLine
10
-137.71751729008352
20
16.124855544071181
30
0
11
-137.71751729008355
21
34.226255544071165
31
0
0
LINE
5
115
100
AcDbEntity
8
0
100
AcDbLine
10
-138.67601729008356
20
16.124855544071181
30
0
11
-137.71751729008352
21
16.124855544071181
31
0
0
ARC
5
116
100
AcDbEntity
8
0
100
AcDbCircle
10
-138.67601729008359
20
14.987355544071171
30
0
40
1.1375000000000091
210
0
220
-0
230
1
100
AcDbArc
50
89.999999999998579
51
180
0
LINE
5
117
100
AcDbEntity
8
0
100
AcDbLine
10
-139.81351729008361
20
-2.8883444559288307
30
0
11
-139.81351729008361
21
14.987355544071175
31
0
0
ARC
5
118
100
AcDbEntity
8
0
100
AcDbCircle
10
-138.67601729008356
20
-2.8883444559288307
30
0
40
1.1375000000000313
210
0
220
0
230
1
100
AcDbArc
50
180
51
270
0
LINE
5
119
100
AcDbEntity
8
0
100
AcDbLine
10
-136.86151729008358
20
-4.0258444559288531
30
0
11
-138.67601729008356
21
-4.025844455928862
31
0
0
LINE
5
120
100
AcDbEntity
8
0
100
AcDbLine
10
-136.86151729008358
20
-22.129844455928811
30
0
11
-136.86151729008358
21
-4.0258444559288531
31
0
0
ARC
5
121
100
AcDbEntity
8
0
100
AcDbCircle
10
-135.72401729008357
20
-22.129844455928811
30
0
40
1.1375000000000313
210
0
220
0
230
1
100
AcDbArc
50
180
51
270
0
LINE
5
122
100
AcDbEntity
8
0
100
AcDbLine
10
-134.28851729008358
20
-23.267344455928836
30
0
11
-135.72401729008357
21
-23.267344455928843
31
0
0
LINE
5
123
100
AcDbEntity
8
0
100
AcDbLine
10
-134.28851729008358
20
-41.370044455928856
30
0
11
-134.28851729008358
21
-23.267344455928836
31
0
0
ARC
5
124
100
AcDbEntity
8
0
100
AcDbCircle
10
-133.15101729008359
20
-41.370044455928834
30
0
40
1.1374999999999957
210
0
220
0
230
1
100
AcDbArc
50
180
51
270.00000000000142
0
LINE
5
125
100
AcDbEntity
8
0
100
AcDbLine
10
-94.040850099478135
20
-42.507544455928816
30
0
11
-133.15101729008356
21
-42.50754445592883
31
0
0
ARC
5
126
100
AcDbEntity
8
0
100
AcDbCircle
10
-92.970656186608267
20
-42.122069114491339
30
0
40
1.1375000000000179
210
0
220
0
230
1
100
AcDbArc
50
199.80861705154859
51
277.98829581580293
0
LINE
5
127
100
AcDbEntity
8
0
100
AcDbLine
10
-18.382148584811446
20
-32.803521095924062
30
0
11
-92.812576890787739
21
-43.248531358080953
31
0
0
ARC
5
128
100
AcDbEntity
8
0
100
AcDbCircle
10
-18.540227880631903
20
-31.677058852334497
30
0
40
1.1374999999999644
210
-0
220
0
230
1
100
AcDbArc
50
-82.011704184200326
51
7.9604104118287005
0
LINE
5
129
100
AcDbEntity
8
0
100
AcDbLine
10
-19.896590914461036
20
-13.763749671546588
30
0
11
-17.413688834511056
21
-31.519527815503487
31
0
0
LINE
5
130
100
AcDbEntity
8
0
100
AcDbLine
10
-16.319955636785473
20
-13.261065102908995
30
0
11
-19.896590914461036
21
-13.763749671546588
31
0
0
ARC
5
131
100
AcDbEntity
8
0
100
AcDbCircle
10
-16.47827160547866
20
-12.13463609757536
30
0
40
1.1375000000000819
210
-0
220
0
230
1
100
AcDbArc
50
-81.999666002873639
51
7.9986558632630826
0
LINE
5
132
100
AcDbEntity
8
0
100
AcDbLine
10
-17.844396697353737
20
5.7621432755552515
30
0
11
-15.351837963717898
21
-11.976353120885506
31
0
0
LINE
5
133
100
AcDbEntity
8
0
100
AcDbLine
10
-9.5400564975503954
20
6.9303697963412247
30
0
11
-17.844396697353737
21
5.7621432755552515
31
0
0
ARC
5
134
100
AcDbEntity
8
0
100
AcDbCircle
10
-9.6985158870912258
20
8.0567786350256387
30
0
40
1.1375000000000099
210
-0
220
0
230
1
100
AcDbArc
50
-81.992370840218783
51
7.9974365850278302
0
LINE
5
135
100
AcDbEntity
8
0
100
AcDbLine
10
-13.70913735115689
20
44.778977632999776
30
0
11
-8.5720788772574252
21
8.2150376406989789
31
0
0
ARC
5
136
100
AcDbEntity
8
0
100
AcDbCircle
10
-14.835574360990691
20
44.620718627326504
30
0
40
1.1375000000000026
210
0
220
-0
230
1
100
AcDbArc
50
7.9974365850244453
51
97.999541355548089
0
LINE
5
137
100
AcDbEntity
8
0
100
AcDbLine
10
-75.141016547018395
20
37.294511287597636
30
0
11
-14.99387474641857
21
45.747149822727884
31
0
0
ARC
5
138
100
AcDbEntity
8
0
100
AcDbCircle
10
-74.982716161590417
20
36.168080092196277
30
0
40
1.1374999999999964
210
0
220
0
230
1
100
AcDbArc
50
97.999541355553191
51
188.00270876779095
0
LINE
5
139
100
AcDbEntity
8
0
100
AcDbLine
10
-73.615383736733619
20
18.271814356160125
30
0
11
-76.109138604144675
21
36.009717435897343
31
0
0
LINE
5
140
100
AcDbEntity
8
0
100
AcDbLine
10
-88.994517290083593
20
16.109993858763193
30
0
11
-73.615383736733619
21
18.271814356160125
31
0
0
LINE
5
141
100
AcDbEntity
8
0
100
AcDbLine
10
90.20898270991637
20
35.515565544071208
30
0
11
136.65698270991635
21
35.515565544071286
31
0
0
ARC
5
142
100
AcDbEntity
8
0
100
AcDbCircle
10
90.208982709916299
20
34.378065544071319
30
0
40
1.1374999999998892
210
0
220
-0
230
1
100
AcDbArc
50
89.999999999996419
51
180
0
LINE
5
143
100
AcDbEntity
8
0
100
AcDbLine
10
89.07148270991641
20
16.2766655440712
30
0
11
89.07148270991641
21
34.378065544071234
31
0
0
LINE
5
144
100
AcDbEntity
8
0
100
AcDbLine
10
78.474346040918235
20
16.2766655440712
30
0
11
89.07148270991641
21
16.2766655440712
31
0
0
LINE
5
145
100
AcDbEntity
8
0
100
AcDbLine
10
69.005644961899435
20
17.607441881078117
30
0
11
78.474346040918235
21
16.2766655440712
31
0
0
LINE
5
146
100
AcDbEntity
8
0
100
AcDbLine
10
71.497972379754913
20
35.345955357524822
30
0
11
69.005644961899435
21
17.607441881078117
31
0
0
ARC
5
147
100
AcDbEntity
8
0
100
AcDbCircle
10
70.371536692989878
20
35.504223780090769
30
0
40
1.1374999999997053
210
-0
220
0
230
1
100
AcDbArc
50
-7.9979155718837678
51
81.999158784825624
0
LINE
5
148
100
AcDbEntity
8
0
100
AcDbLine
10
5.6691335943011012
20
45.747203477276138
30
0
11
70.529862633530342
21
36.630651383867999
31
0
0
ARC
5
149
100
AcDbEntity
8
0
100
AcDbCircle
10
5.5108076537604234
20
44.620775873498744
30
0
40
1.1374999999999016
210
0
220
-0
230
1
100
AcDbArc
50
81.999158784816117
51
171.99729123221127
0
LINE
5
150
100
AcDbEntity
8
0
100
AcDbLine
10
-0.75629442402853186
20
8.2138456353802347
30
0
11
4.3843852112062365
21
44.779138529797613
31
0
0
ARC
5
151
100
AcDbEntity
8
0
100
AcDbCircle
10
0.37012801852569055
20
8.0554829790812033
30
0
40
1.1374999999999584
210
0
220
0
230
1
100
AcDbArc
50
171.99729123220379
51
261.99399196491083
0
LINE
5
152
100
AcDbEntity
8
0
100
AcDbLine
10
8.5185841504863191
20
5.760725017537629
30
0
11
0.21170049961881432
21
6.9290696574035326
31
0
0
LINE
5
153
100
AcDbEntity
8
0
100
AcDbLine
10
6.0183225598747825
20
-12.014339832107561
30
0
11
8.5185841504863191
21
5.760725017537629
31
0
0
LINE
5
154
100
AcDbEntity
8
0
100
AcDbLine
10
2.4298805768777498
20
-11.510032247018742
30
0
11
6.0183225598747825
21
-12.014339832107561
31
0
0
ARC
5
155
100
AcDbEntity
8
0
100
AcDbCircle
10
2.2715758062223301
20
-12.636462826143733
30
0
40
1.1375000000000559
210
0
220
-0
230
1
100
AcDbArc
50
82.000235590350044
51
171.99729123220629
0
LINE
5
156
100
AcDbEntity
8
0
100
AcDbLine
10
-1.3433501716497531
20
-30.178650893531518
30
0
11
1.1451533636680011
21
-12.478100169844737
31
0
0
ARC
5
157
100
AcDbEntity
8
0
100
AcDbCircle
10
-0.21692772909556624
20
-30.33701354983058
30
0
40
1.1374999999999271
210
0
220
0
230
1
100
AcDbArc
50
171.99729123220203
51
261.98181401896483
0
LINE
5
158
100
AcDbEntity
8
0
100
AcDbLine
10
76.826779123079234
20
-42.338468784311367
30
0
11
-0.37559465822642579
21
-31.46339317304826
31
0
0
ARC
5
159
100
AcDbEntity
8
0
100
AcDbCircle
10
77.677257156699042
20
-33.450519856476994
30
0
40
8.9285468599017825
210
0
220
0
230
1
100
AcDbArc
50
264.53407216617512
51
265.88458592857677
0
LINE
5
160
100
AcDbEntity
8
0
100
AcDbLine
10
133.42051405116842
20
-42.354903476650179
30
0
11
77.036493031112769
21
-42.356044566724201
31
0
0
ARC
5
161
100
AcDbEntity
8
0
100
AcDbCircle
10
133.42049091933211
20
-41.211903476884395
30
0
40
1.142999999999857
210
-0
220
0
230
1
100
AcDbArc
50
-89.998840457923649
51
0
0
LINE
5
162
100
AcDbEntity
8
0
100
AcDbLine
10
134.56349091933242
20
-23.115534455928753
30
0
11
134.56349091933197
21
-41.211903476884324
31
0
0
LINE
5
163
100
AcDbEntity
8
0
100
AcDbLine
10
136.08898270991654
20
-23.115534455928753
30
0
11
134.56349091933242
21
-23.115534455928753
31
0
0
ARC
5
164
100
AcDbEntity
8
0
100
AcDbCircle
10
136.08898270991665
20
-21.978034455928935
30
0
40
1.1374999999998181
210
0
220
0
230
1
100
AcDbArc
50
-90.000000000005699
51
0
0
LINE
5
165
100
AcDbEntity
8
0
100
AcDbLine
10
137.22648270991647
20
-3.8740344559287809
30
0
11
137.22648270991647
21
-21.97803445592875
31
0
0
LINE
5
166
100
AcDbEntity
8
0
100
AcDbLine
10
138.7559827099164
20
-3.8740344559287543
30
0
11
137.22648270991647
21
-3.8740344559287809
31
0
0
ARC
5
167
100
AcDbEntity
8
0
100
AcDbCircle
10
138.75598270991645
20
-2.7365344559287941
30
0
40
1.1374999999999602
210
0
220
0
230
1
100
AcDbArc
50
-90.000000000002842
51
0
0
LINE
5
168
100
AcDbEntity
8
0
100
AcDbLine
10
139.89348270991641
20
15.139165544071185
30
0
11
139.89348270991641
21
-2.7365344559287941
31
0
0
ARC
5
169
100
AcDbEntity
8
0
100
AcDbCircle
10
138.7559827099164
20
15.139165544071176
30
0
40
1.1375000000000313
210
0
220
-0
230
1
100
AcDbArc
50
0
51
90
0
LINE
5
170
100
AcDbEntity
8
0
100
AcDbLine
10
137.79448270991645
20
16.276665544071165
30
0
11
138.7559827099164
21
16.276665544071207
31
0
0
LINE
5
171
100
AcDbEntity
8
0
100
AcDbLine
10
137.79448270991651
20
34.378065544071234
30
0
11
137.79448270991645
21
16.276665544071165
31
0
0
ARC
5
172
100
AcDbEntity
8
0
100
AcDbCircle
10
136.65698270991635
20
34.378065544071113
30
0
40
1.1375000000001734
210
0
220
-0
230
1
100
AcDbArc
50
0
51
90
0
ARC
5
173
100
AcDbEntity
8
0
100
AcDbCircle
10
133.77094423647753
20
-36.800694401912189
30
0
40
13.530000000082296
210
-0
220
0
230
1
100
AcDbArc
50
281.16873683694604
51
282.87339500817808
0
SPLINE
5
174
100
AcDbEntity
8
0
100
AcDbSpline
70
0
71
3
72
30
73
26
74
0
42
0.000000001
43
0.0000000001
44
0.0000000001
40
-8.2045269797628357
40
-8.2045269797628357
40
-8.2045269797628357
40
-8.2045269797628357
40
-7.5943805459250067
40
-7.5943805459250067
40
-7.1953750547584256
40
-7.1953750547584256
40
-6.8894070624633095
40
-6.8894070624633095
40
-6.5428579857169771
40
-6.5428579857169771
40
-5.9676860160265059
40
-5.9676860160265059
40
-4.156647077820951
40
-4.156647077820951
40
-2.8267217594689384
40
-2.8267217594689384
40
-1.8875789591493819
40
-1.8875789591493819
40
-1.4202758804396911
40
-1.4202758804396911
40
-1.0533817424255336
40
-1.0533817424255336
40
-0.64246135683468841
40
-0.64246135683468841
40
0
40
0
40
0
40
0
10
134.64911788261099
20
41.592001349636021
30
0
10
136.58866748647441
20
41.591998272931718
30
0
10
138.66334135795213
20
41.443980707548967
30
0
10
141.79309852543759
20
40.708830678481647
30
0
10
143.02980690444338
20
40.273604992814988
30
0
10
144.95576637636674
20
39.10557022869034
30
0
10
145.68477269719983
20
38.479000687203886
30
0
10
146.95797772977977
20
36.825068041260856
30
0
10
147.40744966687851
20
35.830197356031086
30
0
10
148.17963150741875
20
32.987848526301647
30
0
10
148.25793034269674
20
30.885207064518482
30
0
10
147.50290236112443
20
20.80400994621726
30
0
10
144.38639744460943
20
10.437403578777156
30
0
10
143.42206974346567
20
-10.804903353232262
30
0
10
144.52987861568863
20
-17.832330748030412
30
0
10
146.66871225779607
20
-29.129572618759354
30
0
10
147.54973067491613
20
-33.19639016016631
30
0
10
147.79819060356701
20
-38.445704435738818
30
0
10
147.70639561194366
20
-40.091334279827684
30
0
10
147.01904975650422
20
-42.801335491679644
30
0
10
146.53794904815493
20
-43.905082696621498
30
0
10
145.03233543765953
20
-46.031695496032981
30
0
10
144.01525056738336
20
-46.934642936289734
30
0
10
141.03489916889288
20
-48.812659885852689
30
0
10
138.87672245797219
20
-49.529605295133983
30
0
10
136.78539396176063
20
-49.990614525095978
30
0
0
ARC
5
175
100
AcDbEntity
8
0
100
AcDbCircle
10
134.4866780158514
20
32.123394625851105
30
0
40
9.4700000000009403
210
0
220
-0
230
1
100
AcDbArc
50
89.017151504299918
51
96.829966231245251
0
SPLINE
5
176
100
AcDbEntity
8
0
100
AcDbSpline
70
0
71
3
72
18
73
14
74
0
42
0.000000001
43
0.0000000001
44
0.0000000001
40
-35.689297132753701
40
-35.689297132753701
40
-35.689297132753701
40
-35.689297132753701
40
-32.297636363275572
40
-32.297636363275572
40
-25.05003327078775
40
-25.05003327078775
40
-16.192483430707227
40
-16.192483430707227
40
-8.286355634435294
40
-8.286355634435294
40
-3.764228909696139
40
-3.764228909696139
40
0
40
0
40
0
40
0
10
-132.8248391686287
20
41.325441968778314
30
0
10
-119.87943058247504
20
39.226294086639165
30
0
10
-105.64107180912768
20
39.186482847582006
30
0
10
-76.628928778821219
20
40.090227330972247
30
0
10
-62.90993762988915
20
42.831590488008203
30
0
10
-29.913363314776191
20
49.805052814059138
30
0
10
-14.343061799121735
20
53.293205774005315
30
0
10
23.065022987911732
20
51.135209387647897
30
0
10
39.137738311396397
20
46.811115009706029
30
0
10
67.122542353996337
20
41.893745176478532
30
0
10
78.107844969890934
20
40.440647844281152
30
0
10
106.06566822154925
20
39.654008345011277
30
0
10
120.90208834619993
20
40.034008733380048
30
0
10
133.36047453168385
20
41.526190258654474
30
0
0
ARC
5
177
100
AcDbEntity
8
0
100
AcDbCircle
10
-134.34063735792839
20
31.977540822033362
30
0
40
9.4699999999999882
210
0
220
-0
230
1
100
AcDbArc
50
80.789437335899919
51
91.448674186701624
0
SPLINE
5
178
100
AcDbEntity
8
0
100
AcDbSpline
70
0
71
3
72
30
73
26
74
0
42
0.000000001
43
0.0000000001
44
0.0000000001
40
-11.888036356763164
40
-11.888036356763164
40
-11.888036356763164
40
-11.888036356763164
40
-11.297083943873863
40
-11.297083943873863
40
-10.790713465587473
40
-10.790713465587473
40
-10.238034756020284
40
-10.238034756020284
40
-9.6295477130328635
40
-9.6295477130328635
40
-7.4232852399423983
40
-7.4232852399423983
40
-4.4026394906493405
40
-4.4026394906493405
40
-2.6842893107569221
40
-2.6842893107569221
40
-1.9838733744903625
40
-1.9838733744903625
40
-1.5392291848282806
40
-1.5392291848282806
40
-1.1183297484591057
40
-1.1183297484591057
40
-0.64767109587064975
40
-0.64767109587064975
40
0
40
0
40
0
40
0
10
-136.54011883566437
20
-50.162347956284925
30
0
10
-137.85015466957663
20
-49.875056456040816
30
0
10
-139.16780029824687
20
-49.492715863528176
30
0
10
-141.47028796900159
20
-48.540284723031924
30
0
10
-142.49925817337987
20
-47.995262887266612
30
0
10
-144.43735137743278
20
-46.568562235900657
30
0
10
-145.29938372956579
20
-45.681155450047896
30
0
10
-146.70896369761394
20
-43.446331740898955
30
0
10
-147.15338819024601
20
-42.161775435691517
30
0
10
-148.25793034269674
20
-35.852629314782753
30
0
10
-146.49072374093487
20
-29.461266853688144
30
0
10
-143.22425351540736
20
-10.478941128192769
30
0
10
-143.11926634283753
20
-1.8446240145857917
30
0
10
-146.20590422156195
20
17.242501716872457
30
0
10
-147.63817876779387
20
23.337849174022196
30
0
10
-148.17274515227672
20
30.271687617388089
30
0
10
-148.15804685817972
20
32.134954573486986
30
0
10
-147.63337235465136
20
34.837386129087513
30
0
10
-147.29560700288494
20
35.852672806501822
30
0
10
-146.23797303400391
20
37.648912659450005
30
0
10
-145.57471164102543
20
38.380060576473376
30
0
10
-143.85712771868032
20
39.665517733812294
30
0
10
-142.69852674856779
20
40.241935019260957
30
0
10
-139.09670116640103
20
41.25696415598749
30
0
10
-136.73895497636431
20
41.442167058368682
30
0
10
-134.58005259909478
20
41.444513957217424
30
0
0
ARC
5
179
100
AcDbEntity
8
0
100
AcDbCircle
10
-139.47187372832411
20
-63.376016570631492
30
0
40
13.535000000014827
210
0
220
-0
230
1
100
AcDbArc
50
76.820267167400161
51
77.490266863162859
0
SPLINE
5
180
100
AcDbEntity
8
0
100
AcDbSpline
70
0
71
3
72
16
73
12
74
0
42
0.000000001
43
0.0000000001
44
0.0000000001
40
-29.702972671887398
40
-29.702972671887398
40
-29.702972671887398
40
-29.702972671887398
40
-25.242889721455985
40
-25.242889721455985
40
-19.258841904367962
40
-19.258841904367962
40
-12.060997201123428
40
-12.060997201123428
40
-3.938633359216869
40
-3.938633359216869
40
0
40
0
40
0
40
0
10
136.39169263910048
20
-50.074449628387335
30
0
10
120.08910473409621
20
-53.293205774005308
30
0
10
104.12174379839733
20
-52.576874842617578
30
0
10
72.837275471547542
20
-48.788269707372656
30
0
10
55.79855025728925
20
-44.540974094826574
30
0
10
15.924566628526797
20
-37.65417145373376
30
0
10
-2.9931041024936889
20
-36.320725527398999
30
0
10
-53.02735976113329
20
-42.312407262366996
30
0
10
-76.511859894782859
20
-49.626371298883363
30
0
10
-111.11957510329943
20
-53.094869348511516
30
0
10
-123.60284530032183
20
-53.190979999493713
30
0
10
-136.38580611716452
20
-50.19753366478249
30
0
0
ENDSEC
0
SECTION
2
OBJECTS
0
DICTIONARY
5
C
100
AcDbDictionary
3
ACAD_GROUP
350
D
3
ACAD_MLINESTYLE
350
17
0
DICTIONARY
5
D
100
AcDbDictionary
0
DICTIONARY
5
1A
330
C
100
AcDbDictionary
0
DICTIONARY
5
17
100
AcDbDictionary
0
ENDSEC
0
EOF
