0
SECTION
2
HEADER
9
$INSUNITS
70
4
9
$ACADVER
1
AC1014
9
$HANDSEED
5
FFFF
0
ENDSEC
0
SECTION
2
TABLES
0
TABLE
2
VPORT
5
8
100
AcDbSymbolTable
0
ENDTAB
0
TABLE
2
LTYPE
5
5
100
AcDbSymbolTable
0
LTYPE
5
14
100
AcDbSymbolTableRecord
100
AcDbLinetypeTableRecord
2
BYBLOCK
70
0
0
LTYPE
5
15
100
AcDbSymbolTableRecord
100
AcDbLinetypeTableRecord
2
BYLAYER
70
0
0
ENDTAB
0
TABLE
2
LAYER
5
2
100
AcDbSymbolTable
70
2
0
LAYER
5
50
100
AcDbSymbolTableRecord
100
AcDbLayerTableRecord
2
0
70
0
6
CONTINUOUS
0
ENDTAB
0
TABLE
2
STYLE
5
3
100
AcDbSymbolTable
70
1
0
STYLE
5
11
100
AcDbSymbolTableRecord
100
AcDbTextStyleTableRecord
2
STANDARD
70
0
0
ENDTAB
0
TABLE
2
VIEW
5
6
100
AcDbSymbolTable
70
0
0
ENDTAB
0
TABLE
2
UCS
5
7
100
AcDbSymbolTable
70
0
0
ENDTAB
0
TABLE
2
APPID
5
9
100
AcDbSymbolTable
70
2
0
APPID
5
12
100
AcDbSymbolTableRecord
100
AcDbRegAppTableRecord
2
ACAD
70
0
0
ENDTAB
0
TABLE
2
DIMSTYLE
5
A
100
AcDbSymbolTable
70
1
0
ENDTAB
0
TABLE
2
BLOCK_RECORD
5
1
100
AcDbSymbolTable
70
1
0
BLOCK_RECORD
5
1F
100
AcDbSymbolTableRecord
100
AcDbBlockTableRecord
2
*MODEL_SPACE
0
BLOCK_RECORD
5
1B
100
AcDbSymbolTableRecord
100
AcDbBlockTableRecord
2
*PAPER_SPACE
0
ENDTAB
0
ENDSEC
0
SECTION
2
BLOCKS
0
BLOCK
5
20
100
AcDbEntity
100
AcDbBlockBegin
2
*MODEL_SPACE
0
ENDBLK
5
21
100
AcDbEntity
100
AcDbBlockEnd
0
BLOCK
5
1C
100
AcDbEntity
100
AcDbBlockBegin
2
*PAPER_SPACE
0
ENDBLK
5
1D
100
AcDbEntity
100
AcDbBlockEnd
0
ENDSEC
0
SECTION
2
ENTITIES
0
CIRCLE
5
100
100
AcDbEntity
8
0
100
AcDbCircle
10
-88.658858602129413
20
3.7564186911298769
30
0
40
0.94999999999998863
210
0
220
0
230
1
0
CIRCLE
5
101
100
AcDbEntity
8
0
100
AcDbCircle
10
87.067714129050557
20
3.7506750999216187
30
0
40
0.94999999999998863
210
0
220
0
230
1
0
CIRCLE
5
102
100
AcDbEntity
8
0
100
AcDbCircle
10
134.36144345439351
20
3.631465007535386
30
0
40
0.94999999999998863
210
0
220
0
230
1
0
CIRCLE
5
103
100
AcDbEntity
8
0
100
AcDbCircle
10
-134.35258993342265
20
3.7773086131962508
30
0
40
0.94999999999998863
210
0
220
0
230
1
0
SPLINE
5
104
100
AcDbEntity
8
0
100
AcDbSpline
70
0
71
3
72
29
73
25
74
0
42
0.000000001
43
0.0000000001
44
0.0000000001
40
-1
40
-1
40
-1
40
-1
40
-0.87210547298709229
40
-0.87210547298709229
40
-0.87210547298709229
40
-0.75702004660128352
40
-0.75702004660128352
40
-0.75702004660128352
40
-0.56776503495096264
40
-0.56776503495096264
40
-0.56776503495096264
40
-0.47328828581922905
40
-0.47328828581922905
40
-0.47328828581922905
40
-0.36380418729455083
40
-0.36380418729455083
40
-0.36380418729455083
40
-0.24382136053342529
40
-0.24382136053342529
40
-0.24382136053342529
40
-0.13556594364508356
40
-0.13556594364508356
40
-0.13556594364508356
40
0
40
0
40
0
40
0
10
135.94022185790385
20
5.4006659181574435
30
0
10
126.69616971102322
20
7.2257963717742335
30
0
10
116.6857435740728
20
7.9224589349052188
30
0
10
105.97761195826422
20
7.4998856531268743
30
0
10
96.341938551564681
20
7.1196346177733183
30
0
10
86.147861207120258
20
5.8062887362762439
30
0
10
75.488768232253918
20
3.9180006724383354
30
0
10
57.960165102457992
20
0.81275971583993467
30
0
10
39.132119928727889
20
-3.791623775482158
30
0
10
19.653039304349811
20
-5.8809033563036905
30
0
10
9.9290156316427058
20
-6.9238788690897657
30
0
10
0.050057614634440029
20
-7.3232245753252201
30
0
10
-9.8132198764102441
20
-6.9345962556759488
30
0
10
-21.243249534819206
20
-6.484235488302037
30
0
10
-32.643509264509483
20
-4.9795588218064246
30
0
10
-43.692222703028705
20
-3.0022184307931532
30
0
10
-55.800427349097603
20
-0.83526548712667292
30
0
10
-67.472861636309148
20
1.8408661183638841
30
0
10
-78.398237912276414
20
3.9397564632690418
30
0
10
-88.255741651303509
20
5.8334962210677865
30
0
10
-97.50297492706899
20
7.2327728763200305
30
0
10
-106.14112347299849
20
7.7481807623100885
30
0
10
-116.95849217966733
20
8.3936150364991491
30
0
10
-126.85078256234209
20
7.6796317135421077
30
0
10
-135.99386581463654
20
5.5385527067537765
30
0
0
ARC
5
105
100
AcDbEntity
8
0
100
AcDbCircle
10
-139.5359463715595
20
20.664354844636392
30
0
40
15.534999999552834
210
-0
220
0
230
1
100
AcDbArc
50
282.50037428875686
51
283.17973283260625
0
SPLINE
5
106
100
AcDbEntity
8
0
100
AcDbSpline
70
0
71
3
72
17
73
13
74
0
42
0.000000001
43
0.0000000001
44
0.0000000001
40
-2.1835634141445799e-05
40
-2.1835634141445799e-05
40
-2.1835634141445799e-05
40
-2.1835634141445799e-05
40
0
40
0
40
0
40
0.091918631256452485
40
0.091918631256452485
40
0.091918631256452485
40
0.17858539961452419
40
0.17858539961452419
40
0.17858539961452419
40
0.21305563441869546
40
0.21305563441869546
40
0.21305563441869546
40
0.21305563441869546
10
-136.17345789127185
20
5.4976183398419742
30
0
10
-136.17422908332153
20
5.4974492170475919
30
0
10
-136.17500027539265
20
5.4972800942485378
30
0
10
-136.17577146746351
20
5.4971109714495547
30
0
10
-139.20266169581208
20
4.8333124613129996
30
0
10
-141.39695257307523
20
3.8090265570411397
30
0
10
-142.85144317159211
20
2.5552946140959598
30
0
10
-144.22282999554253
20
1.3731958992098114
30
0
10
-145.00608458275457
20
0.0067189970380709951
30
0
10
-145.4050709434637
20
-1.842706430790404
30
0
10
-145.5637609903855
20
-2.5782839763458476
30
0
10
-145.65467223643788
20
-3.390948345050937
30
0
10
-145.67901113575493
20
-4.2847299078840351
30
0
0
SPLINE
5
107
100
AcDbEntity
8
0
100
AcDbSpline
70
0
71
3
72
20
73
16
74
0
42
0.000000001
43
0.0000000001
44
0.0000000001
40
-0.9612674209242954
40
-0.9612674209242954
40
-0.9612674209242954
40
-0.9612674209242954
40
-0.83221373651037944
40
-0.83221373651037944
40
-0.83221373651037944
40
-0.70316005209647403
40
-0.70316005209647403
40
-0.70316005209647403
40
-0.46877336806431458
40
-0.46877336806431458
40
-0.46877336806431458
40
-0.23438668403215701
40
-0.23438668403215701
40
-0.23438668403215701
40
0
40
0
40
0
40
0
10
-145.67901113575499
20
-4.2847299078841061
30
0
10
-145.68681781743589
20
-4.5714095996151727
30
0
10
-145.66377101795501
20
-4.8580993337598066
30
0
10
-145.61026855896174
20
-5.1398504239291043
30
0
10
-145.55676609996848
20
-5.4216015140983487
30
0
10
-145.47311760669766
20
-5.6967834324791156
30
0
10
-145.36076697514827
20
-5.9606461345049766
30
0
10
-145.15671629579447
20
-6.4398723111806966
30
0
10
-144.86101292344108
20
-6.8746611893187648
30
0
10
-144.49030111423008
20
-7.240539806714672
30
0
10
-144.11958930501913
20
-7.6064184241104549
30
0
10
-143.68095747284963
20
-7.8963907827609425
30
0
10
-143.1990948882852
20
-8.09413520810077
30
0
10
-142.71723230372092
20
-8.2918796334405442
30
0
10
-142.20135270464937
20
-8.3936150364990247
30
0
10
-141.68049340680005
20
-8.3936150364990247
30
0
0
LINE
5
108
100
AcDbEntity
8
0
100
AcDbLine
10
-141.68049340680005
20
-8.393615036499007
30
0
11
141.6715537426299
21
-8.3936150364991313
31
0
0
SPLINE
5
109
100
AcDbEntity
8
0
100
AcDbSpline
70
0
71
3
72
20
73
16
74
0
42
0.000000001
43
0.0000000001
44
0.0000000001
40
-0.96514154456497381
40
-0.96514154456497381
40
-0.96514154456497381
40
-0.96514154456497381
40
-0.83415079833072592
40
-0.83415079833072592
40
-0.83415079833072592
40
-0.70316005209648558
40
-0.70316005209648558
40
-0.70316005209648558
40
-0.46877336806432551
40
-0.46877336806432551
40
-0.46877336806432551
40
-0.2343866840321705
40
-0.2343866840321705
40
-0.2343866840321705
40
0
40
0
40
0
40
0
10
141.6715537426299
20
-8.3936150364991313
30
0
10
141.96264428981678
20
-8.3936150364991313
30
0
10
142.25286705498817
20
-8.3618398965009177
30
0
10
142.53706163570803
20
-8.2988546049531386
30
0
10
142.8212562164274
20
-8.2358693134054661
30
0
10
143.09772816436242
20
-8.1420494064003357
30
0
10
143.36156157805868
20
-8.0190630800088591
30
0
10
143.83364865864172
20
-7.7989990063784731
30
0
10
144.25823892234951
20
-7.4888297607427745
30
0
10
144.61143345640261
20
-7.1060138398736683
30
0
10
144.96462799045574
20
-6.7231979190044733
30
0
10
145.23967333035145
20
-6.2750551806104227
30
0
10
145.42108799865025
20
-5.7868102356471596
30
0
10
145.60250266694908
20
-5.2985652906840741
30
0
10
145.68681781743584
20
-4.77955391472765
30
0
10
145.66928760311484
20
-4.258989701837308
30
0
0
SPLINE
5
110
100
AcDbEntity
8
0
100
AcDbSpline
70
0
71
3
72
17
73
13
74
0
42
0.000000001
43
0.0000000001
44
0.0000000001
40
-0.21031581488519516
40
-0.21031581488519516
40
-0.21031581488519516
40
-0.21031581488519516
40
-0.12151574355997294
40
-0.12151574355997294
40
-0.12151574355997294
40
-0.036768407445985848
40
-0.036768407445985848
40
-0.036768407445985848
40
0
40
0
40
0
40
7.4191729787749459e-05
40
7.4191729787749459e-05
40
7.4191729787749459e-05
40
7.4191729787749459e-05
10
145.66928760311492
20
-4.2589897018388889
30
0
10
145.59262219649662
20
-1.9823907783762884
30
0
10
145.08794851518792
20
-0.28479404552205878
30
0
10
144.09419879661334
20
1.0928904366851455
30
0
10
143.14580269561498
20
2.4076989512530389
30
0
10
141.69466380606295
20
3.5031481477602
30
0
10
139.51699702022893
20
4.363303793915545
30
0
10
138.57219635351015
20
4.7364901938074055
30
0
10
137.49644206201702
20
5.0600696648498911
30
0
10
136.29078096757462
20
5.3258437380052825
30
0
10
136.28816932599406
20
5.3264194442494883
30
0
10
136.28555768441245
20
5.3269951504939428
30
0
10
136.28294604282189
20
5.3275708567403157
30
0
0
ARC
5
111
100
AcDbEntity
8
0
100
AcDbCircle
10
133.70687159317214
20
-5.9109673234742388
30
0
40
11.529999999925334
210
0
220
-0
230
1
100
AcDbArc
50
77.089800783007306
51
78.831263163065159
0
ENDSEC
0
SECTION
2
OBJECTS
0
DICTIONARY
5
C
100
AcDbDictionary
3
ACAD_GROUP
350
D
3
ACAD_MLINESTYLE
350
17
0
DICTIONARY
5
D
100
AcDbDictionary
0
DICTIONARY
5
1A
330
C
100
AcDbDictionary
0
DICTIONARY
5
17
100
AcDbDictionary
0
ENDSEC
0
EOF
