0
SECTION
2
HEADER
9
$INSUNITS
70
4
9
$ACADVER
1
AC1014
9
$HANDSEED
5
FFFF
0
ENDSEC
0
SECTION
2
TABLES
0
TABLE
2
VPORT
5
8
100
AcDbSymbolTable
0
ENDTAB
0
TABLE
2
LTYPE
5
5
100
AcDbSymbolTable
0
LTYPE
5
14
100
AcDbSymbolTableRecord
100
AcDbLinetypeTableRecord
2
BYBLOCK
70
0
0
LTYPE
5
15
100
AcDbSymbolTableRecord
100
AcDbLinetypeTableRecord
2
BYLAYER
70
0
0
ENDTAB
0
TABLE
2
LAYER
5
2
100
AcDbSymbolTable
70
2
0
LAYER
5
50
100
AcDbSymbolTableRecord
100
AcDbLayerTableRecord
2
0
70
0
6
CONTINUOUS
0
ENDTAB
0
TABLE
2
STYLE
5
3
100
AcDbSymbolTable
70
1
0
STYLE
5
11
100
AcDbSymbolTableRecord
100
AcDbTextStyleTableRecord
2
STANDARD
70
0
0
ENDTAB
0
TABLE
2
VIEW
5
6
100
AcDbSymbolTable
70
0
0
ENDTAB
0
TABLE
2
UCS
5
7
100
AcDbSymbolTable
70
0
0
ENDTAB
0
TABLE
2
APPID
5
9
100
AcDbSymbolTable
70
2
0
APPID
5
12
100
AcDbSymbolTableRecord
100
AcDbRegAppTableRecord
2
ACAD
70
0
0
ENDTAB
0
TABLE
2
DIMSTYLE
5
A
100
AcDbSymbolTable
70
1
0
ENDTAB
0
TABLE
2
BLOCK_RECORD
5
1
100
AcDbSymbolTable
70
1
0
BLOCK_RECORD
5
1F
100
AcDbSymbolTableRecord
100
AcDbBlockTableRecord
2
*MODEL_SPACE
0
BLOCK_RECORD
5
1B
100
AcDbSymbolTableRecord
100
AcDbBlockTableRecord
2
*PAPER_SPACE
0
ENDTAB
0
ENDSEC
0
SECTION
2
BLOCKS
0
BLOCK
5
20
100
AcDbEntity
100
AcDbBlockBegin
2
*MODEL_SPACE
0
ENDBLK
5
21
100
AcDbEntity
100
AcDbBlockEnd
0
BLOCK
5
1C
100
AcDbEntity
100
AcDbBlockBegin
2
*PAPER_SPACE
0
ENDBLK
5
1D
100
AcDbEntity
100
AcDbBlockEnd
0
ENDSEC
0
SECTION
2
ENTITIES
0
CIRCLE
5
100
100
AcDbEntity
8
0
100
AcDbCircle
10
134.42262276429921
20
8.3260865636487758
30
0
40
0.94999999999998863
210
0
220
0
230
1
0
CIRCLE
5
101
100
AcDbEntity
8
0
100
AcDbCircle
10
87.128893438956254
20
8.4452966560350262
30
0
40
0.94999999999998863
210
0
220
0
230
1
0
CIRCLE
5
102
100
AcDbEntity
8
0
100
AcDbCircle
10
-134.29141062351695
20
8.4719301693096227
30
0
40
0.94999999999998863
210
0
220
0
230
1
0
CIRCLE
5
103
100
AcDbEntity
8
0
100
AcDbCircle
10
-88.597679292223717
20
8.4510402472432844
30
0
40
0.94999999999998863
210
0
220
0
230
1
0
SPLINE
5
104
100
AcDbEntity
8
0
100
AcDbSpline
70
0
71
3
72
23
73
19
74
0
42
0.000000001
43
0.0000000001
44
0.0000000001
40
-2.1984888685035813
40
-2.1984888685035813
40
-2.1984888685035813
40
-2.1984888685035813
40
-1.8875789591507
40
-1.8875789591507
40
-1.8875789591507
40
-1.4202758804383211
40
-1.4202758804383211
40
-1.4202758804383211
40
-1.0533817424246801
40
-1.0533817424246801
40
-1.0533817424246801
40
-0.64246135683470784
40
-0.64246135683470784
40
-0.64246135683470784
40
0
40
0
40
0
40
0.00039313791356037844
40
0.00039313791356037844
40
0.00039313791356037844
40
0.00039313791356037844
10
146.34897346763586
20
-4.8399611029374334
30
0
10
146.53169016168931
20
-3.5764625785073889
30
0
10
146.66098233358696
20
-2.3854094923632729
30
0
10
146.71386271364398
20
-1.2681841295646734
30
0
10
146.79335589398187
20
0.41130072185142197
30
0
10
146.70116670919725
20
1.9586624882261638
30
0
10
146.34915459119986
20
3.3465420525131329
30
0
10
146.07283704760761
20
4.4359803201140657
30
0
10
145.64207096879514
20
5.4187281189897796
30
0
10
145.00870176338026
20
6.3133341783395913
30
0
10
144.29957409350061
20
7.3149457263961004
30
0
10
143.3882424462108
20
8.1289019245052252
30
0
10
142.31661495577754
20
8.8041694757309763
30
0
10
140.64169821367108
20
9.8595893273549429
30
0
10
138.5869522327863
20
10.551795469096792
30
0
10
136.56723045290377
20
10.997019824891598
30
0
10
136.56595071753458
20
10.997301927783685
30
0
10
136.56467098216547
20
10.997584030675771
30
0
10
136.56339124678809
20
10.997866133569634
30
0
0
ARC
5
105
100
AcDbEntity
8
0
100
AcDbCircle
10
133.76805090306271
20
-1.2163457674299316
30
0
40
12.529999999991169
210
0
220
-0
230
1
100
AcDbArc
50
77.109305110183357
51
78.831263163058139
0
SPLINE
5
106
100
AcDbEntity
8
0
100
AcDbSpline
70
0
71
3
72
20
73
16
74
0
42
0.000000001
43
0.0000000001
44
0.0000000001
40
-29.702972671887398
40
-29.702972671887398
40
-29.702972671887398
40
-29.702972671887398
40
-25.242889721455985
40
-25.242889721455985
40
-25.242889721455985
40
-19.258841904367962
40
-19.258841904367962
40
-19.258841904367962
40
-12.060997201123428
40
-12.060997201123428
40
-12.060997201123428
40
-3.938633359216869
40
-3.938633359216869
40
-3.938633359216869
40
0
40
0
40
0
40
0
10
136.19510023673831
20
11.076348466613357
30
0
10
120.04190447782804
20
14.265608872588711
30
0
10
104.17963938993587
20
13.55989018878299
30
0
10
90.879290588701025
20
11.94919413211835
30
0
10
73.034075090952371
20
9.7881065800470601
30
0
10
56.011822534173561
20
5.5464632991399299
30
0
10
37.864670127117854
20
2.4121926356219703
30
0
10
16.03520710062952
20
-1.3580653106148333
30
0
10
-3.0149930183617002
20
-2.7011845892603503
30
0
10
-26.622334214821493
20
0.12583208553575531
30
0
10
-53.259899215391577
20
3.3157228828894958
30
0
10
-76.75425240411009
20
10.628324715803696
30
0
10
-99.920713514211812
20
12.95014297780213
30
0
10
-111.15507304518914
20
14.076087117345519
30
0
10
-123.52308251709897
20
14.166242834102007
30
0
10
-136.16069297766438
20
11.206833879109102
30
0
0
ARC
5
107
100
AcDbEntity
8
0
100
AcDbCircle
10
-139.47476706168976
20
25.358976400908801
30
0
40
14.534999999715836
210
-0
220
0
230
1
100
AcDbArc
50
282.5200647060804
51
283.17973283260278
0
SPLINE
5
108
100
AcDbEntity
8
0
100
AcDbSpline
70
0
71
3
72
20
73
16
74
0
42
0.000000001
43
0.0000000001
44
0.0000000001
40
-4.4577771912712594
40
-4.4577771912712594
40
-4.4577771912712594
40
-4.4577771912712594
40
-4.4572948509627608
40
-4.4572948509627608
40
-4.4572948509627608
40
-3.5736089960696544
40
-3.5736089960696544
40
-3.5736089960696544
40
-2.9676055915260577
40
-2.9676055915260577
40
-2.9676055915260577
40
-2.3177842162670377
40
-2.3177842162670377
40
-2.3177842162670377
40
-1.1556894666294677
40
-1.1556894666294677
40
-1.1556894666294677
40
-1.1556894666294677
10
-136.32384593732922
20
11.16960705999805
30
0
10
-136.32549801265819
20
11.169244759068953
30
0
10
-136.32715008799241
20
11.1688824581387
30
0
10
-136.3288021633318
20
11.168520157207329
30
0
10
-139.25536824806497
20
10.526722780920608
30
0
10
-141.19799240426707
20
9.6321510491437223
30
0
10
-142.58817151446158
20
8.6678184707509232
30
0
10
-143.53900077997656
20
8.0082519224540683
30
0
10
-144.34240929462979
20
7.2319721842762164
30
0
10
-144.97534316425944
20
6.2992600015535771
30
0
10
-145.65422460799442
20
5.2988379613071857
30
0
10
-146.08693181955215
20
4.1949412349292103
30
0
10
-146.34026514816676
20
2.9736440687589649
30
0
10
-146.7933558939819
20
0.78933438117049448
30
0
10
-146.66230893663766
20
-1.8217709985782626
30
0
10
-146.22166877350827
20
-4.8497006634178597
30
0
0
SPLINE
5
109
100
AcDbEntity
8
0
100
AcDbSpline
70
0
71
3
72
17
73
13
74
0
42
0.000000001
43
0.0000000001
44
0.0000000001
40
-1.7161776834924096
40
-1.7161776834924096
40
-1.7161776834924096
40
-1.7161776834924096
40
-1.3268622098105245
40
-1.3268622098105245
40
-1.3268622098105245
40
-0.93754673612863615
40
-0.93754673612863615
40
-0.93754673612863615
40
-0.46877336806431441
40
-0.46877336806431441
40
-0.46877336806431441
40
0
40
0
40
0
40
0
10
-146.22166877350824
20
-4.8497006634178597
30
0
10
-146.05036003853539
20
-6.0268761546092975
30
0
10
-145.68922483778459
20
-7.1685061175839593
30
0
10
-145.15235514943828
20
-8.2300426254226444
30
0
10
-144.61548546109188
20
-9.2915791332614184
30
0
10
-143.90995643669103
20
-10.259032698715949
30
0
10
-143.06329876169204
20
-11.094651990681541
30
0
10
-142.04384128636173
20
-12.100818188520099
30
0
10
-140.8376037478956
20
-12.898242174808994
30
0
10
-139.51248164034359
20
-13.442039344493431
30
0
10
-138.18735953279165
20
-13.98583651417785
30
0
10
-136.76869063534491
20
-14.265608872588693
30
0
10
-135.33632756625946
20
-14.265608872588693
30
0
0
LINE
5
110
100
AcDbEntity
8
0
100
AcDbLine
10
-135.33632756625946
20
-14.265608872588702
30
0
11
135.46221935748912
21
-14.265608872587592
31
0
0
SPLINE
5
111
100
AcDbEntity
8
0
100
AcDbSpline
70
0
71
3
72
17
73
13
74
0
42
0.000000001
43
0.0000000001
44
0.0000000001
40
-1.7172583171912768
40
-1.7172583171912768
40
-1.7172583171912768
40
-1.7172583171912768
40
-1.3274025266599492
40
-1.3274025266599492
40
-1.3274025266599492
40
-0.93754673612862682
40
-0.93754673612862682
40
-0.93754673612862682
40
-0.46877336806431458
40
-0.46877336806431458
40
-0.46877336806431458
40
0
40
0
40
0
40
0
10
135.46221935748912
20
-14.265608872587592
30
0
10
136.65344538411262
20
-14.265608872587592
30
0
10
137.83680026993864
20
-14.072106220791474
30
0
10
138.96598112769192
20
-13.69267238335933
30
0
10
140.09516198544526
20
-13.313238545927151
30
0
10
141.15524647239903
20
-12.752887814170739
30
0
10
142.10475508558324
20
-12.033545864890582
30
0
10
143.24647046193249
20
-11.168589241072162
30
0
10
144.20832515459404
20
-10.088899673039418
30
0
10
144.93617924710838
20
-8.8552496490497035
30
0
10
145.66403333962279
20
-7.6215996250600071
30
0
10
146.14396946831897
20
-6.2575778783544678
30
0
10
146.34897346763574
20
-4.8399611029373979
30
0
0
ENDSEC
0
SECTION
2
OBJECTS
0
DICTIONARY
5
C
100
AcDbDictionary
3
ACAD_GROUP
350
D
3
ACAD_MLINESTYLE
350
17
0
DICTIONARY
5
D
100
AcDbDictionary
0
DICTIONARY
5
1A
330
C
100
AcDbDictionary
0
DICTIONARY
5
17
100
AcDbDictionary
0
ENDSEC
0
EOF
