0
SECTION
2
HEADER
9
$INSUNITS
70
4
9
$ACADVER
1
AC1014
9
$HANDSEED
5
FFFF
0
ENDSEC
0
SECTION
2
TABLES
0
TABLE
2
VPORT
5
8
100
AcDbSymbolTable
0
ENDTAB
0
TABLE
2
LTYPE
5
5
100
AcDbSymbolTable
0
LTYPE
5
14
100
AcDbSymbolTableRecord
100
AcDbLinetypeTableRecord
2
BYBLOCK
70
0
0
LTYPE
5
15
100
AcDbSymbolTableRecord
100
AcDbLinetypeTableRecord
2
BYLAYER
70
0
0
ENDTAB
0
TABLE
2
LAYER
5
2
100
AcDbSymbolTable
70
2
0
LAYER
5
50
100
AcDbSymbolTableRecord
100
AcDbLayerTableRecord
2
0
70
0
6
CONTINUOUS
0
ENDTAB
0
TABLE
2
STYLE
5
3
100
AcDbSymbolTable
70
1
0
STYLE
5
11
100
AcDbSymbolTableRecord
100
AcDbTextStyleTableRecord
2
STANDARD
70
0
0
ENDTAB
0
TABLE
2
VIEW
5
6
100
AcDbSymbolTable
70
0
0
ENDTAB
0
TABLE
2
UCS
5
7
100
AcDbSymbolTable
70
0
0
ENDTAB
0
TABLE
2
APPID
5
9
100
AcDbSymbolTable
70
2
0
APPID
5
12
100
AcDbSymbolTableRecord
100
AcDbRegAppTableRecord
2
ACAD
70
0
0
ENDTAB
0
TABLE
2
DIMSTYLE
5
A
100
AcDbSymbolTable
70
1
0
ENDTAB
0
TABLE
2
BLOCK_RECORD
5
1
100
AcDbSymbolTable
70
1
0
BLOCK_RECORD
5
1F
100
AcDbSymbolTableRecord
100
AcDbBlockTableRecord
2
*MODEL_SPACE
0
BLOCK_RECORD
5
1B
100
AcDbSymbolTableRecord
100
AcDbBlockTableRecord
2
*PAPER_SPACE
0
ENDTAB
0
ENDSEC
0
SECTION
2
BLOCKS
0
BLOCK
5
20
100
AcDbEntity
100
AcDbBlockBegin
2
*MODEL_SPACE
0
ENDBLK
5
21
100
AcDbEntity
100
AcDbBlockEnd
0
BLOCK
5
1C
100
AcDbEntity
100
AcDbBlockBegin
2
*PAPER_SPACE
0
ENDBLK
5
1D
100
AcDbEntity
100
AcDbBlockEnd
0
ENDSEC
0
SECTION
2
ENTITIES
0
CIRCLE
5
100
100
AcDbEntity
8
0
100
AcDbCircle
10
134.42551609773261
20
45.685983600451848
30
0
40
0.94999999999998863
210
0
220
0
230
1
0
CIRCLE
5
101
100
AcDbEntity
8
0
100
AcDbCircle
10
-88.594785958790325
20
45.810937284046354
30
0
40
0.94999999999998863
210
0
220
0
230
1
0
CIRCLE
5
102
100
AcDbEntity
8
0
100
AcDbCircle
10
-3.5835172900842593
20
-49.10109820777329
30
0
40
0.94999999999998863
210
0
220
0
230
1
0
CIRCLE
5
103
100
AcDbEntity
8
0
100
AcDbCircle
10
-3.0299864212589256
20
-30.873273565450916
30
0
40
1.6316267665651552
210
0
220
0
230
1
0
CIRCLE
5
104
100
AcDbEntity
8
0
100
AcDbCircle
10
141.63975322527443
20
-36.500849302393156
30
0
40
0.94999999999998863
210
0
220
0
230
1
0
CIRCLE
5
105
100
AcDbEntity
8
0
100
AcDbCircle
10
87.131786772389646
20
45.805193692838095
30
0
40
0.94999999999998863
210
0
220
0
230
1
0
CIRCLE
5
106
100
AcDbEntity
8
0
100
AcDbCircle
10
-141.59196337568108
20
-36.347126274735061
30
0
40
0.94999999999998863
210
0
220
0
230
1
0
CIRCLE
5
107
100
AcDbEntity
8
0
100
AcDbCircle
10
-134.28851729008355
20
45.831827206112692
30
0
40
0.94999999999998863
210
0
220
0
230
1
0
SPLINE
5
108
100
AcDbEntity
8
0
100
AcDbSpline
70
0
71
3
72
16
73
12
74
0
42
0.000000001
43
0.0000000001
44
0.0000000001
40
0
40
0
40
0
40
0
40
0.039064447338691917
40
0.039064447338691917
40
0.078128894677386623
40
0.078128894677386623
40
0.11719334201607885
40
0.11719334201607885
40
0.14099752528748247
40
0.14099752528748247
40
0.16480170855888729
40
0.16480170855888729
40
0.16480170855888729
40
0.16480170855888729
10
-121.71924593186752
20
51.746847003504271
30
0
10
-121.58937774956458
20
51.756342040896506
30
0
10
-121.45889658592715
20
51.740380156713343
30
0
10
-121.2113970828712
20
51.659339438391839
30
0
10
-121.09674497359958
20
51.595035397691262
30
0
10
-120.89854288644551
20
51.426098916471915
30
0
10
-120.81688782854476
20
51.323081600791092
30
0
10
-120.72094932099216
20
51.136769826130063
30
0
10
-120.69314873012594
20
51.062152458238224
30
0
10
-120.65577166549349
20
50.907922380525079
30
0
10
-120.64632767980652
20
50.828856360149942
30
0
10
-120.64632767980652
20
50.749509082578598
30
0
0
LINE
5
109
100
AcDbEntity
8
0
100
AcDbLine
10
-120.64632767980655
20
42.524755359766608
30
0
11
-120.64632767980652
21
50.749509082578598
31
0
0
ARC
5
110
100
AcDbEntity
8
0
100
AcDbCircle
10
-120.44632767980656
20
42.524755359766608
30
0
40
0.19999999999999574
210
0
220
0
230
1
100
AcDbArc
50
180
51
269.99999999999591
0
LINE
5
111
100
AcDbEntity
8
0
100
AcDbLine
10
-108.84632767977102
20
42.324755359766613
30
0
11
-120.44632767980657
21
42.324755359766613
31
0
0
ARC
5
112
100
AcDbEntity
8
0
100
AcDbCircle
10
-108.84632767977106
20
42.524755359766608
30
0
40
0.19999999999999574
210
-0
220
0
230
1
100
AcDbArc
50
-89.999999999987793
51
0
0
LINE
5
113
100
AcDbEntity
8
0
100
AcDbLine
10
-108.64632767980498
20
50.888474878017185
30
0
11
-108.64632767977099
21
42.52475535976744
31
0
0
SPLINE
5
114
100
AcDbEntity
8
0
100
AcDbSpline
70
0
71
3
72
16
73
12
74
0
42
0.000000001
43
0.0000000001
44
0.0000000001
40
0
40
0
40
0
40
0
40
0.039064447338693603
40
0.039064447338693603
40
0.078128894677384556
40
0.078128894677384556
40
0.1171933420160774
40
0.1171933420160774
40
0.13973020771989417
40
0.13973020771989417
40
0.16226707342371771
40
0.16226707342371771
40
0.16226707342371771
40
0.16226707342371771
10
-108.64632767980498
20
50.888474878017185
30
0
10
-108.64632767980552
20
51.018689702479492
30
0
10
-108.62089382904142
20
51.147659602247479
30
0
10
-108.52202161637248
20
51.388590894530054
30
0
10
-108.44952852671031
20
51.498248852572708
30
0
10
-108.26658921801314
20
51.683604757178969
30
0
10
-108.15789199847896
20
51.757530600267749
30
0
10
-107.96896726167435
20
51.837973244614858
30
0
10
-107.89675235804583
20
51.859521184064761
30
0
10
-107.74886483503269
20
51.886036695529612
30
0
10
-107.67366204879941
20
51.890920028752475
30
0
10
-107.59862468570553
20
51.887336442180171
30
0
0
SPLINE
5
115
100
AcDbEntity
8
0
100
AcDbSpline
70
0
71
3
72
14
73
10
74
0
42
0.000000001
43
0.0000000001
44
0.0000000001
40
-22.636085612984711
40
-22.636085612984711
40
-22.636085612984711
40
-22.636085612984711
40
-17.043718502080743
40
-17.043718502080743
40
-10.295633202138085
40
-10.295633202138085
40
-5.6830387588748055
40
-5.6830387588748055
40
-0.10486041347168296
40
-0.10486041347168296
40
-0.10486041347168296
40
-0.10486041347168296
10
136.39169263910048
20
49.417306495758965
30
0
10
113.43241301768352
20
53.950348906633693
30
0
10
90.732804489182612
20
50.834857185260809
30
0
10
48.66387293340992
20
43.035522907405088
30
0
10
26.498262083215067
20
37.279734701880344
30
0
10
-18.065608916709621
20
36.777208676039251
30
0
10
-34.091912219284026
20
39.168637323830339
30
0
10
-70.489640196511303
20
46.285740365088003
30
0
10
-89.021688919261663
20
51.000150981200498
30
0
10
-107.59862468570557
20
51.887336442180114
30
0
0
ARC
5
116
100
AcDbEntity
8
0
100
AcDbCircle
10
133.7709442364922
20
36.143551269353779
30
0
40
13.530000000010876
210
0
220
-0
230
1
100
AcDbArc
50
77.126604991816023
51
78.831263163057628
0
SPLINE
5
117
100
AcDbEntity
8
0
100
AcDbSpline
70
0
71
3
72
30
73
26
74
0
42
0.000000001
43
0.0000000001
44
0.0000000001
40
-8.2045269797628357
40
-8.2045269797628357
40
-8.2045269797628357
40
-8.2045269797628357
40
-7.5943805459250067
40
-7.5943805459250067
40
-7.1953750547584256
40
-7.1953750547584256
40
-6.8894070624633095
40
-6.8894070624633095
40
-6.5428579857169771
40
-6.5428579857169771
40
-5.9676860160265059
40
-5.9676860160265059
40
-4.156647077820951
40
-4.156647077820951
40
-2.8267217594689384
40
-2.8267217594689384
40
-1.8875789591493819
40
-1.8875789591493819
40
-1.4202758804396911
40
-1.4202758804396911
40
-1.0533817424255336
40
-1.0533817424255336
40
-0.64246135683468841
40
-0.64246135683468841
40
0
40
0
40
0
40
0
10
134.64911788261099
20
-42.249144482264391
30
0
10
136.58866748647441
20
-42.249141405560096
30
0
10
138.66334135795213
20
-42.101123840177337
30
0
10
141.79309852543759
20
-41.365973811110024
30
0
10
143.02980690444338
20
-40.930748125443358
30
0
10
144.95576637636674
20
-39.762713361318717
30
0
10
145.68477269719983
20
-39.136143819832256
30
0
10
146.95797772977977
20
-37.482211173889233
30
0
10
147.40744966687851
20
-36.487340488659463
30
0
10
148.17963150741875
20
-33.644991658930017
30
0
10
148.25793034269674
20
-31.542350197146853
30
0
10
147.50290236112443
20
-21.461153078845634
30
0
10
144.38639744460943
20
-11.094546711405524
30
0
10
143.42206974346567
20
10.147760220603885
30
0
10
144.52987861568863
20
17.175187615402034
30
0
10
146.66871225779607
20
28.472429486130988
30
0
10
147.54973067491613
20
32.53924702753794
30
0
10
147.79819060356701
20
37.788561303110448
30
0
10
147.70639561194366
20
39.434191147199314
30
0
10
147.01904975650422
20
42.144192359051274
30
0
10
146.53794904815493
20
43.247939563993128
30
0
10
145.03233543765953
20
45.374552363404618
30
0
10
144.01525056738336
20
46.277499803661364
30
0
10
141.03489916889288
20
48.155516753224319
30
0
10
138.87672245797219
20
48.872462162505613
30
0
10
136.78539396176063
20
49.333471392467615
30
0
0
ARC
5
118
100
AcDbEntity
8
0
100
AcDbCircle
10
134.48667801585131
20
-32.780537758481117
30
0
40
9.4699999999992741
210
0
220
0
230
1
100
AcDbArc
50
263.17003376875357
51
270.98284849570024
0
SPLINE
5
119
100
AcDbEntity
8
0
100
AcDbSpline
70
0
71
3
72
18
73
14
74
0
42
0.000000001
43
0.0000000001
44
0.0000000001
40
-35.689297132753701
40
-35.689297132753701
40
-35.689297132753701
40
-35.689297132753701
40
-32.297636363275572
40
-32.297636363275572
40
-25.05003327078775
40
-25.05003327078775
40
-16.192483430707227
40
-16.192483430707227
40
-8.286355634435294
40
-8.286355634435294
40
-3.764228909696139
40
-3.764228909696139
40
0
40
0
40
0
40
0
10
-132.8248391686287
20
-41.982585101406684
30
0
10
-119.87943058247502
20
-39.883437219267535
30
0
10
-105.64107180912764
20
-39.843625980210376
30
0
10
-76.628928778821219
20
-40.747370463600625
30
0
10
-62.909937629889114
20
-43.48873362063658
30
0
10
-29.913363314776191
20
-50.462195946687501
30
0
10
-14.343061799121699
20
-53.950348906633693
30
0
10
23.065022987911732
20
-51.792352520276275
30
0
10
39.137738311396433
20
-47.468258142334399
30
0
10
67.122542353996337
20
-42.550888309106902
30
0
10
78.107844969890934
20
-41.097790976909522
30
0
10
106.06566822154925
20
-40.311151477639655
30
0
10
120.90208834619993
20
-40.691151866008411
30
0
10
133.36047453168385
20
-42.183333391282844
30
0
0
ARC
5
120
100
AcDbEntity
8
0
100
AcDbCircle
10
-134.34063735792839
20
-32.634683954661512
30
0
40
9.4700000000002067
210
0
220
0
230
1
100
AcDbArc
50
268.55132581329855
51
279.21056266409971
0
SPLINE
5
121
100
AcDbEntity
8
0
100
AcDbSpline
70
0
71
3
72
30
73
26
74
0
42
0.000000001
43
0.0000000001
44
0.0000000001
40
-11.888036356763164
40
-11.888036356763164
40
-11.888036356763164
40
-11.888036356763164
40
-11.297083943873863
40
-11.297083943873863
40
-10.790713465587473
40
-10.790713465587473
40
-10.238034756020284
40
-10.238034756020284
40
-9.6295477130328635
40
-9.6295477130328635
40
-7.4232852399423983
40
-7.4232852399423983
40
-4.4026394906493405
40
-4.4026394906493405
40
-2.6842893107569221
40
-2.6842893107569221
40
-1.9838733744903625
40
-1.9838733744903625
40
-1.5392291848282806
40
-1.5392291848282806
40
-1.1183297484591057
40
-1.1183297484591057
40
-0.64767109587064975
40
-0.64767109587064975
40
0
40
0
40
0
40
0
10
-136.54011883566437
20
49.505204823656555
30
0
10
-137.85015466957663
20
49.217913323412446
30
0
10
-139.16780029824685
20
48.835572730899806
30
0
10
-141.47028796900156
20
47.883141590403554
30
0
10
-142.49925817337984
20
47.338119754638242
30
0
10
-144.43735137743278
20
45.911419103272294
30
0
10
-145.29938372956576
20
45.024012317419526
30
0
10
-146.70896369761391
20
42.789188608270585
30
0
10
-147.15338819024601
20
41.504632303063147
30
0
10
-148.25793034269674
20
35.195486182154383
30
0
10
-146.49072374093484
20
28.804123721059778
30
0
10
-143.22425351540733
20
9.8217979955643919
30
0
10
-143.11926634283753
20
1.1874808819574234
30
0
10
-146.20590422156195
20
-17.899644849500831
30
0
10
-147.63817876779387
20
-23.99499230665057
30
0
10
-148.17274515227669
20
-30.928830750016463
30
0
10
-148.15804685817972
20
-32.792097706115364
30
0
10
-147.63337235465133
20
-35.49452926171589
30
0
10
-147.29560700288494
20
-36.509815939130192
30
0
10
-146.23797303400389
20
-38.306055792078375
30
0
10
-145.5747116410254
20
-39.037203709101746
30
0
10
-143.85712771868032
20
-40.322660866440657
30
0
10
-142.69852674856776
20
-40.899078151889334
30
0
10
-139.09670116640103
20
-41.914107288615853
30
0
10
-136.73895497636431
20
-42.099310190997059
30
0
10
-134.58005259909476
20
-42.101657089845801
30
0
0
ARC
5
122
100
AcDbEntity
8
0
100
AcDbCircle
10
-139.47187372824513
20
62.718873437658033
30
0
40
13.534999999660815
210
-0
220
0
230
1
100
AcDbArc
50
282.50973313682778
51
283.17973283260881
0
SPLINE
5
123
100
AcDbEntity
8
0
100
AcDbSpline
70
0
71
3
72
10
73
6
74
0
42
0.000000001
43
0.0000000001
44
0.0000000001
40
-1.4852277525931186
40
-1.4852277525931186
40
-1.4852277525931186
40
-1.4852277525931186
40
-0.78431678997027821
40
-0.78431678997027821
40
0
40
0
40
0
40
0
10
-121.71924593186752
20
51.746847003504314
30
0
10
-124.04934098917505
20
51.576487033077036
30
0
10
-126.37086682327256
20
51.327625166156139
30
0
10
-131.27163959736146
20
50.617882762914732
30
0
10
-133.840280834716
20
50.136488215299693
30
0
10
-136.38580611716452
20
49.54039053215412
30
0
0
ENDSEC
0
SECTION
2
OBJECTS
0
DICTIONARY
5
C
100
AcDbDictionary
3
ACAD_GROUP
350
D
3
ACAD_MLINESTYLE
350
17
0
DICTIONARY
5
D
100
AcDbDictionary
0
DICTIONARY
5
1A
330
C
100
AcDbDictionary
0
DICTIONARY
5
17
100
AcDbDictionary
0
ENDSEC
0
EOF
