0
SECTION
2
HEADER
9
$INSUNITS
70
4
9
$ACADVER
1
AC1014
9
$HANDSEED
5
FFFF
0
ENDSEC
0
SECTION
2
TABLES
0
TABLE
2
VPORT
5
8
100
AcDbSymbolTable
0
ENDTAB
0
TABLE
2
LTYPE
5
5
100
AcDbSymbolTable
0
LTYPE
5
14
100
AcDbSymbolTableRecord
100
AcDbLinetypeTableRecord
2
BYBLOCK
70
0
0
LTYPE
5
15
100
AcDbSymbolTableRecord
100
AcDbLinetypeTableRecord
2
BYLAYER
70
0
0
ENDTAB
0
TABLE
2
LAYER
5
2
100
AcDbSymbolTable
70
2
0
LAYER
5
50
100
AcDbSymbolTableRecord
100
AcDbLayerTableRecord
2
0
70
0
6
CONTINUOUS
0
ENDTAB
0
TABLE
2
STYLE
5
3
100
AcDbSymbolTable
70
1
0
STYLE
5
11
100
AcDbSymbolTableRecord
100
AcDbTextStyleTableRecord
2
STANDARD
70
0
0
ENDTAB
0
TABLE
2
VIEW
5
6
100
AcDbSymbolTable
70
0
0
ENDTAB
0
TABLE
2
UCS
5
7
100
AcDbSymbolTable
70
0
0
ENDTAB
0
TABLE
2
APPID
5
9
100
AcDbSymbolTable
70
2
0
APPID
5
12
100
AcDbSymbolTableRecord
100
AcDbRegAppTableRecord
2
ACAD
70
0
0
ENDTAB
0
TABLE
2
DIMSTYLE
5
A
100
AcDbSymbolTable
70
1
0
ENDTAB
0
TABLE
2
BLOCK_RECORD
5
1
100
AcDbSymbolTable
70
1
0
BLOCK_RECORD
5
1F
100
AcDbSymbolTableRecord
100
AcDbBlockTableRecord
2
*MODEL_SPACE
0
BLOCK_RECORD
5
1B
100
AcDbSymbolTableRecord
100
AcDbBlockTableRecord
2
*PAPER_SPACE
0
ENDTAB
0
ENDSEC
0
SECTION
2
BLOCKS
0
BLOCK
5
20
100
AcDbEntity
100
AcDbBlockBegin
2
*MODEL_SPACE
0
ENDBLK
5
21
100
AcDbEntity
100
AcDbBlockEnd
0
BLOCK
5
1C
100
AcDbEntity
100
AcDbBlockBegin
2
*PAPER_SPACE
0
ENDBLK
5
1D
100
AcDbEntity
100
AcDbBlockEnd
0
ENDSEC
0
SECTION
2
ENTITIES
0
CIRCLE
5
100
100
AcDbEntity
8
0
100
AcDbCircle
10
141.46224647912044
20
-36.512365948614047
30
0
40
1.5749999999999886
210
0
220
0
230
1
0
CIRCLE
5
101
100
AcDbEntity
8
0
100
AcDbCircle
10
134.24800935157856
20
45.674466954230979
30
0
40
1.5749999999999886
210
0
220
0
230
1
0
CIRCLE
5
102
100
AcDbEntity
8
0
100
AcDbCircle
10
-3.7610240362382186
20
-49.112614853994188
30
0
40
1.5749999999999886
210
0
220
0
230
1
0
CIRCLE
5
103
100
AcDbEntity
8
0
100
AcDbCircle
10
-141.76947012183507
20
-36.358642920955965
30
0
40
1.5750000000000064
210
0
220
0
230
1
0
CIRCLE
5
104
100
AcDbEntity
8
0
100
AcDbCircle
10
-88.772292704944249
20
45.799420637825456
30
0
40
1.5749999999999886
210
0
220
0
230
1
0
CIRCLE
5
105
100
AcDbEntity
8
0
100
AcDbCircle
10
86.954280026235793
20
45.793677046617198
30
0
40
1.5749999999999886
210
0
220
0
230
1
0
CIRCLE
5
106
100
AcDbEntity
8
0
100
AcDbCircle
10
-134.46602403623757
20
45.820310559891773
30
0
40
1.5750000000000064
210
0
220
0
230
1
0
LINE
5
107
100
AcDbEntity
8
0
100
AcDbLine
10
142.45393609371249
20
42.075547404728717
30
0
11
142.45393609371234
21
20.17554742222557
31
0
0
ARC
5
108
100
AcDbEntity
8
0
100
AcDbCircle
10
142.25393609371247
20
20.175547422225499
30
0
40
0.19999999999992468
210
-0
220
0
230
1
100
AcDbArc
50
-90
51
0
0
LINE
5
109
100
AcDbEntity
8
0
100
AcDbLine
10
142.25393609371247
20
19.975547422225574
30
0
11
137.4539360937124
21
19.975547422225564
31
0
0
LINE
5
110
100
AcDbEntity
8
0
100
AcDbLine
10
137.4539360937124
20
19.975547422225564
30
0
11
137.4539360937124
21
-35.824452309553799
31
0
0
ARC
5
111
100
AcDbEntity
8
0
100
AcDbCircle
10
137.25393609371247
20
-35.824452309553806
30
0
40
0.19999999999999574
210
-0
220
0
230
1
100
AcDbArc
50
-90
51
0
0
LINE
5
112
100
AcDbEntity
8
0
100
AcDbLine
10
137.25393609371247
20
-36.024452309553809
30
0
11
78.375160941955997
21
-36.024452309553809
31
0
0
LINE
5
113
100
AcDbEntity
8
0
100
AcDbLine
10
78.375160941955997
20
-36.024452309553809
30
0
11
2.1087355941386221
21
-46.655529782281342
31
0
0
ARC
5
114
100
AcDbEntity
8
0
100
AcDbCircle
10
2.0811237737494181
20
-46.457444983837171
30
0
40
0.19999999999968487
210
-0
220
0
230
1
100
AcDbArc
50
270
51
277.93555037009338
0
LINE
5
115
100
AcDbEntity
8
0
100
AcDbLine
10
2.0811237737494181
20
-46.657444983836847
30
0
11
0.85393617422191426
21
-46.657444983836839
31
0
0
ARC
5
116
100
AcDbEntity
8
0
100
AcDbCircle
10
0.85393617422187873
20
-46.457444983836858
30
0
40
0.19999999999996021
210
0
220
0
230
1
100
AcDbArc
50
180
51
270.00000000001017
0
LINE
5
117
100
AcDbEntity
8
0
100
AcDbLine
10
0.65393617422191852
20
-46.457444983848795
30
0
11
0.65393617398779469
21
-42.540450864981658
31
0
0
LINE
5
118
100
AcDbEntity
8
0
100
AcDbLine
10
0.65393617398779469
20
-42.540450864981658
30
0
11
-7.5461957987953454
21
-42.540450864981658
31
0
0
LINE
5
119
100
AcDbEntity
8
0
100
AcDbLine
10
-7.5461957987953454
20
-42.540450864981658
30
0
11
-7.5461954621639649
21
-46.824321021496146
31
0
0
ARC
5
120
100
AcDbEntity
8
0
100
AcDbCircle
10
-7.7461954621639606
20
-46.824321037266053
30
0
40
0.19999999999999574
210
-0
220
0
230
1
100
AcDbArc
50
-90
51
4.4363380004132953e-06
0
LINE
5
121
100
AcDbEntity
8
0
100
AcDbLine
10
-7.7461954621639606
20
-47.024321037266049
30
0
11
-10.310095556551993
21
-47.024321037266049
31
0
0
ARC
5
122
100
AcDbEntity
8
0
100
AcDbCircle
10
-10.310095556552028
20
-46.824321037266685
30
0
40
0.19999999999936441
210
0
220
0
230
1
100
AcDbArc
50
261.96834390550708
51
270.00000000001017
0
LINE
5
123
100
AcDbEntity
8
0
100
AcDbLine
10
-10.338039597721043
20
-47.022359242072952
30
0
11
-88.280658177119278
21
-36.024321037618158
31
0
0
LINE
5
124
100
AcDbEntity
8
0
100
AcDbLine
10
-88.280658177119278
20
-36.024321037618158
30
0
11
-134.64593236340676
21
-36.024321037618215
31
0
0
ARC
5
125
100
AcDbEntity
8
0
100
AcDbCircle
10
-134.64593236340679
20
-35.824321037618219
30
0
40
0.19999999999997797
210
0
220
0
230
1
100
AcDbArc
50
180
51
270.00000000000813
0
LINE
5
126
100
AcDbEntity
8
0
100
AcDbLine
10
-134.84593236340677
20
-35.824321037618219
30
0
11
-134.8459323634068
21
39.075415879344476
31
0
0
ARC
5
127
100
AcDbEntity
8
0
100
AcDbCircle
10
-134.64593236340679
20
39.075415879344469
30
0
40
0.19999999999999574
210
0
220
-0
230
1
100
AcDbArc
50
90
51
180
0
LINE
5
128
100
AcDbEntity
8
0
100
AcDbLine
10
-134.64593236340679
20
39.275415879344465
30
0
11
-122.82383442596054
21
39.275415879344429
31
0
0
ARC
5
129
100
AcDbEntity
8
0
100
AcDbCircle
10
-122.82383442596054
20
41.275415879344422
30
0
40
1.9999999999999929
210
-0
220
0
230
1
100
AcDbArc
50
-90
51
0
0
LINE
5
130
100
AcDbEntity
8
0
100
AcDbLine
10
-120.82383442596054
20
41.275415879344422
30
0
11
-120.82383442596051
21
52.241938256785005
31
0
0
SPLINE
5
131
100
AcDbEntity
8
0
100
AcDbSpline
70
0
71
3
72
16
73
12
74
0
42
0.000000001
43
0.0000000001
44
0.0000000001
40
0
40
0
40
0
40
0
40
0.039064447338691612
40
0.039064447338691612
40
0.078128894677386457
40
0.078128894677386457
40
0.11719334201607873
40
0.11719334201607873
40
0.14094479772532709
40
0.14094479772532709
40
0.16469625343457572
40
0.16469625343457572
40
0.16469625343457572
40
0.16469625343457572
10
-121.89570458112777
20
53.239352253476568
30
0
10
-121.76582649263233
20
53.24871081311575
30
0
10
-121.63536217465099
20
53.232611821081576
30
0
10
-121.38794797022143
20
53.151311061641728
30
0
10
-121.27336349841876
20
53.086886573808634
30
0
10
-121.07533904829347
20
52.917741904393417
30
0
10
-120.99379229164575
20
52.814638838041866
30
0
10
-120.89812992238555
20
52.628382691971602
30
0
10
-120.87045003018554
20
52.553909927483595
30
0
10
-120.83323662009897
20
52.400001903611148
30
0
10
-120.82383442596051
20
52.321109775815835
30
0
10
-120.82383442596051
20
52.241938256785005
30
0
0
SPLINE
5
132
100
AcDbEntity
8
0
100
AcDbSpline
70
0
71
3
72
11
73
7
74
0
42
0.000000001
43
0.0000000001
44
0.0000000001
40
-1.496141804339723
40
-1.496141804339723
40
-1.496141804339723
40
-1.496141804339723
40
-0.78431678997027821
40
-0.78431678997027821
40
-0.78431678997027821
40
0
40
0
40
0
40
0
10
-121.89570458112776
20
53.239352253476547
30
0
10
-124.29651837885049
20
53.066358029671392
30
0
10
-126.69017210492491
20
52.811221446844961
30
0
10
-129.0761447436573
20
52.465678808419518
30
0
10
-131.70511260111832
20
52.084944983120771
30
0
10
-134.31624148654143
20
51.595660661804558
30
0
10
-136.9053225727188
20
50.989363310296135
30
0
0
ARC
5
133
100
AcDbEntity
8
0
100
AcDbCircle
10
-139.6493804743665
20
62.707356791289747
30
0
40
12.034999999509894
210
-0
220
0
230
1
100
AcDbArc
50
282.52725063434178
51
283.17973283262012
0
SPLINE
5
134
100
AcDbEntity
8
0
100
AcDbSpline
70
0
71
3
72
44
73
40
74
0
42
0.000000001
43
0.0000000001
44
0.0000000001
40
-12.764904862877591
40
-12.764904862877591
40
-12.764904862877591
40
-12.764904862877591
40
-12.07023214669136
40
-12.07023214669136
40
-12.07023214669136
40
-11.479018611301505
40
-11.479018611301505
40
-11.479018611301505
40
-10.863350369952324
40
-10.863350369952324
40
-10.863350369952324
40
-10.164392448050398
40
-10.164392448050398
40
-10.164392448050398
40
-8.4118046194839575
40
-8.4118046194839575
40
-8.4118046194839575
40
-8.1320238489568837
40
-8.1320238489568837
40
-8.1320238489568837
40
-4.4026394906493405
40
-4.4026394906493405
40
-4.4026394906493405
40
-2.6842893107569221
40
-2.6842893107569221
40
-2.6842893107569221
40
-1.9838733744903625
40
-1.9838733744903625
40
-1.9838733744903625
40
-1.5392291848282806
40
-1.5392291848282806
40
-1.5392291848282806
40
-1.1183297484591057
40
-1.1183297484591057
40
-1.1183297484591057
40
-0.64767109587064975
40
-0.64767109587064975
40
-0.64767109587064975
40
-0.0016985630060604245
40
-0.0016985630060604245
40
-0.0016985630060604245
40
-0.0016985630060604245
10
-137.03894060414999
20
50.958869618904295
30
0
10
-138.49086530740391
20
50.640461819416231
30
0
10
-139.970732254891
20
50.208091600633786
30
0
10
-141.38376099602496
20
49.602437474351689
30
0
10
-142.58626778815486
20
49.087017526169163
30
0
10
-143.76874631470278
20
48.43411081007342
30
0
10
-144.84237592875022
20
47.585746744240566
30
0
10
-145.96026378880853
20
46.702410556699057
30
0
10
-146.91890650740729
20
45.633255984658206
30
0
10
-147.64607320213463
20
44.367911521473673
30
0
10
-148.47147926687009
20
42.931620501182167
30
0
10
-148.92170941036224
20
41.383210662926267
30
0
10
-149.13525604545561
20
39.822163643105554
30
0
10
-149.67067039546518
20
35.908231798259457
30
0
10
-148.84592069928146
20
31.54490549896807
30
0
10
-147.87870070632223
20
26.498155131034899
30
0
10
-147.72429500380136
20
25.692498670580591
30
0
10
-147.56524144158408
20
24.869570596436628
30
0
10
-147.40571482359206
20
24.028745690917319
30
0
10
-145.28295792143356
20
12.840224965256484
30
0
10
-144.34099734665779
20
4.1148885713402183
30
0
10
-146.74496556669044
20
-10.750750182874667
30
0
10
-147.85413584716213
20
-17.609628170113165
30
0
10
-149.29631924205029
20
-23.697574027396033
30
0
10
-149.69101646278568
20
-28.81717533804062
30
0
10
-149.85184009428764
20
-30.903212004541572
30
0
10
-149.84661883679254
20
-32.890885741393532
30
0
10
-149.48712267972368
20
-34.742536150259653
30
0
10
-149.25876707284931
20
-35.918723279166386
30
0
10
-148.87186824365713
20
-37.102086584064125
30
0
10
-148.2223692657993
20
-38.205167595835754
30
0
10
-147.60766250597865
20
-39.249159007188261
30
0
10
-146.79956717697218
20
-40.138444004032991
30
0
10
-145.840134473939
20
-40.856493130514735
30
0
10
-144.76889086778795
20
-41.658222666327035
30
0
10
-143.42990999681621
20
-42.312931751928772
30
0
10
-141.76704140960777
20
-42.781544134194249
30
0
10
-139.48222364300349
20
-43.425427784945221
30
0
10
-137.01566341150206
20
-43.609721438141129
30
0
10
-134.77684600462064
20
-43.613149735744912
30
0
0
ARC
5
135
100
AcDbEntity
8
0
100
AcDbCircle
10
-134.51814410408241
20
-32.646200600882402
30
0
40
10.970000000000166
210
0
220
0
230
1
100
AcDbArc
50
268.64868721032872
51
279.2105626641
0
SPLINE
5
136
100
AcDbEntity
8
0
100
AcDbSpline
70
0
71
3
72
23
73
19
74
0
42
0.000000001
43
0.0000000001
44
0.0000000001
40
-35.689297132753701
40
-35.689297132753701
40
-35.689297132753701
40
-35.689297132753701
40
-32.297636363275572
40
-32.297636363275572
40
-32.297636363275572
40
-25.05003327078775
40
-25.05003327078775
40
-25.05003327078775
40
-16.192483430707227
40
-16.192483430707227
40
-16.192483430707227
40
-8.286355634435294
40
-8.286355634435294
40
-8.286355634435294
40
-3.764228909696139
40
-3.764228909696139
40
-3.764228909696139
40
0
40
0
40
0
40
0
10
-132.76225116462959
20
-43.474761908146853
30
0
10
-119.98542406745702
20
-41.402950164006555
30
0
10
-105.81309695042094
20
-41.356040973036627
30
0
10
-96.616582898932933
20
-41.642517529827728
30
0
10
-76.970053800632428
20
-42.254517900562405
30
0
10
-63.387637015714056
20
-44.969940069503664
30
0
10
-48.548561173012672
20
-48.106015207312595
30
0
10
-30.4112224445565
20
-51.939141855850259
30
0
10
-14.654996632512933
20
-55.472114289117727
30
0
10
5.3314095632311265
20
-54.319139134355524
30
0
10
23.165487762689239
20
-53.290327407490906
30
0
10
39.300322556550249
20
-48.942996424652364
30
0
10
57.022121648876478
20
-45.828997837616797
30
0
10
67.159857621447685
20
-44.047638319327476
30
0
10
78.047417724496171
20
-42.606607034001186
30
0
10
93.229996163950659
20
-42.17942013201197
30
0
10
105.86763484593064
20
-41.823839310312749
30
0
10
120.65596007375781
20
-42.205170400999464
30
0
10
133.00458286195516
20
-43.68420520637423
30
0
0
ARC
5
137
100
AcDbEntity
8
0
100
AcDbCircle
10
134.30917126969732
20
-32.792054404702014
30
0
40
10.969999999999274
210
0
220
0
230
1
100
AcDbArc
50
263.17003376875346
51
270.9138367144036
0
SPLINE
5
138
100
AcDbEntity
8
0
100
AcDbSpline
70
0
71
3
72
41
73
37
74
0
42
0.000000001
43
0.0000000001
44
0.0000000001
40
-13.650487113123651
40
-13.650487113123651
40
-13.650487113123651
40
-13.650487113123651
40
-12.615768422351232
40
-12.615768422351232
40
-12.615768422351232
40
-12.05723889989884
40
-12.05723889989884
40
-12.05723889989884
40
-11.592641196977134
40
-11.592641196977134
40
-11.592641196977134
40
-11.038312864785707
40
-11.038312864785707
40
-11.038312864785707
40
-9.5774351329802165
40
-9.5774351329802165
40
-9.5774351329802165
40
-8.4897839945830409
40
-8.4897839945830409
40
-8.4897839945830409
40
-4.546469655116117
40
-4.546469655116117
40
-4.546469655116117
40
-2.9393027753323007
40
-2.9393027753323007
40
-2.9393027753323007
40
-2.1500510428830895
40
-2.1500510428830895
40
-2.1500510428830895
40
-1.5361938894451452
40
-1.5361938894451452
40
-1.5361938894451452
40
-0.85301615102271167
40
-0.85301615102271167
40
-0.85301615102271167
40
-0.00054323972503720328
40
-0.00054323972503720328
40
-0.00054323972503720328
40
-0.00054323972503720328
10
134.48412942230811
20
-43.760659131135846
30
0
10
136.74735101807755
20
-43.759940229945627
30
0
10
139.2485022811187
20
-43.574496513965869
30
0
10
141.55941346252183
20
-42.910038052737576
30
0
10
142.80629352874604
20
-42.551521456856761
30
0
10
144.06799948630953
20
-42.032990852302405
30
0
10
145.21506234613753
20
-41.244067938503086
30
0
10
146.1687733651508
20
-40.588127882911607
30
0
10
146.9993030236509
20
-39.767701334275934
30
0
10
147.65358226382097
20
-38.783166783988861
30
0
10
148.43437928592357
20
-37.608253080748753
30
0
10
148.89277825881783
20
-36.317787452719898
30
0
10
149.15659006316042
20
-35.027284684832452
30
0
10
149.85184009428764
20
-31.626291724037976
30
0
10
149.38570529695099
20
-27.624700089599777
30
0
10
148.61998339007391
20
-23.035411574903961
30
0
10
148.04988892865646
20
-19.618599360733946
30
0
10
147.29366683289078
20
-15.879351815296396
30
0
10
146.62808341812058
20
-11.877177765595537
30
0
10
144.21824662014089
20
2.6132468496535299
30
0
10
144.78380464101051
20
11.261686981168806
30
0
10
146.98663799980557
20
23.011738664156745
30
0
10
147.88597088839089
20
27.808836855400337
30
0
10
148.83036031159904
20
32.023317784992329
30
0
10
149.02919186249954
20
35.816432068841777
30
0
10
149.12680973062862
20
37.678690489510956
30
0
10
149.04628078301499
20
39.490670199704027
30
0
10
148.61961978810547
20
41.222313097069552
30
0
10
148.28768685332739
20
42.56949344813976
30
0
10
147.74194989186711
20
43.859903528050765
30
0
10
146.92554675419444
20
45.033524877483522
30
0
10
146.0166013870068
20
46.34018042444837
30
0
10
144.85684566273662
20
47.381916175489913
30
0
10
143.56983830825192
20
48.207236208981435
30
0
10
141.96877864496025
20
49.233948768412603
30
0
10
139.85000709160238
20
50.14272168156544
30
0
10
136.93636360638601
20
50.785557919017343
30
0
0
ARC
5
139
100
AcDbEntity
8
0
100
AcDbCircle
10
133.5934374903382
20
36.132034623132874
30
0
40
15.030000000012762
210
0
220
-0
230
1
100
AcDbArc
50
77.14897063934545
51
78.831263163056491
0
SPLINE
5
140
100
AcDbEntity
8
0
100
AcDbSpline
70
0
71
3
72
17
73
13
74
0
42
0.000000001
43
0.0000000001
44
0.0000000001
40
-22.636085612984711
40
-22.636085612984711
40
-22.636085612984711
40
-22.636085612984711
40
-17.043718502080743
40
-17.043718502080743
40
-17.043718502080743
40
-10.295633202138085
40
-10.295633202138085
40
-10.295633202138085
40
-5.6830387588748055
40
-5.6830387588748055
40
-5.6830387588748055
40
-0.097722423602788488
40
-0.097722423602788488
40
-0.097722423602788488
40
-0.097722423602788488
10
136.50473449633964
20
50.877381338051883
30
0
10
113.2330001847027
20
55.472114289117734
30
0
10
90.336357917295871
20
52.308310840790114
30
0
10
71.217337160251404
20
48.763756024802881
30
0
10
48.144902281336179
20
44.486261313862848
30
0
10
26.095880869119554
20
38.76577761811842
30
0
10
-0.16647615196522025
20
38.469629244853245
30
0
10
-18.117898142735811
20
38.267199416635805
30
0
10
-34.024156805281045
20
40.637569903101351
30
0
10
-50.456071853775342
20
43.850617504272932
30
0
10
-70.352971402856781
20
47.74119782788447
30
0
10
-88.970239251342377
20
52.489986095574473
30
0
10
-107.77669201450507
20
53.377554447460327
30
0
0
SPLINE
5
141
100
AcDbEntity
8
0
100
AcDbSpline
70
0
71
3
72
16
73
12
74
0
42
0.000000001
43
0.0000000001
44
0.0000000001
40
0
40
0
40
0
40
0
40
0.039064447338693152
40
0.039064447338693152
40
0.078128894677385471
40
0.078128894677385471
40
0.11719334201607784
40
0.11719334201607784
40
0.13970205840343303
40
0.13970205840343303
40
0.1622107747907916
40
0.1622107747907916
40
0.1622107747907916
40
0.1622107747907916
10
-108.82383442596506
20
52.378666269008953
30
0
10
-108.8238344259656
20
52.50888109347126
30
0
10
-108.79840057520148
20
52.637850993239248
30
0
10
-108.69952836253255
20
52.878782285521837
30
0
10
-108.62703527287039
20
52.98844024356449
30
0
10
-108.44409596417321
20
53.173796148170752
30
0
10
-108.33539874463902
20
53.247721991259532
30
0
10
-108.14656033882223
20
53.32812787656141
30
0
10
-108.07443922312626
20
53.349658851207991
30
0
10
-107.92674385365058
20
53.376182689294545
30
0
10
-107.85163765020961
20
53.381091498024873
30
0
10
-107.7766920145051
20
53.377554447460305
30
0
0
LINE
5
142
100
AcDbEntity
8
0
100
AcDbLine
10
-108.82383442596506
20
52.378666269008953
30
0
11
-108.82383442596321
21
44.313238713537586
31
0
0
ARC
5
143
100
AcDbEntity
8
0
100
AcDbCircle
10
-106.82383442593235
20
44.313238713545708
30
0
40
2.000000000030866
210
0
220
0
230
1
100
AcDbArc
50
180
51
270
0
LINE
5
144
100
AcDbEntity
8
0
100
AcDbLine
10
-106.82383442593235
20
42.313238713514842
30
0
11
-85.195527187452342
21
42.313238713545765
31
0
0
ARC
5
145
100
AcDbEntity
8
0
100
AcDbCircle
10
-85.1955271874522
20
42.113238713549379
30
0
40
0.19999999999639073
210
0
220
-0
230
1
100
AcDbArc
50
82.227224868445575
51
90.000000000040714
0
LINE
5
146
100
AcDbEntity
8
0
100
AcDbLine
10
-85.168478229487164
20
42.311401156690252
30
0
11
-3.7610240362380409
21
31.199372199135126
31
0
0
LINE
5
147
100
AcDbEntity
8
0
100
AcDbLine
10
-3.7610240362380409
20
31.199372199135126
30
0
11
75.447913204931893
21
42.309393495857137
31
0
0
ARC
5
148
100
AcDbEntity
8
0
100
AcDbCircle
10
75.475693709955678
20
42.111332284252605
30
0
40
0.2000000000040798
210
0
220
-0
230
1
100
AcDbArc
50
89.997754213392227
51
97.984345091059964
0
LINE
5
149
100
AcDbEntity
8
0
100
AcDbLine
10
75.475701549229797
20
42.311332284103045
30
0
11
124.50517164100049
21
42.309410506721406
31
0
0
ARC
5
150
100
AcDbEntity
8
0
100
AcDbCircle
10
124.50516380172608
20
42.109410506875065
30
0
40
0.19999999999996021
210
-0
220
0
230
1
100
AcDbArc
50
0
51
89.997754213310756
0
LINE
5
151
100
AcDbEntity
8
0
100
AcDbLine
10
124.70516380172604
20
42.109410506875015
30
0
11
124.70516380172612
21
39.48946268742975
31
0
0
LINE
5
152
100
AcDbEntity
8
0
100
AcDbLine
10
124.70516380172612
20
39.48946268742975
30
0
11
131.90390136344638
21
39.48946268742975
31
0
0
LINE
5
153
100
AcDbEntity
8
0
100
AcDbLine
10
131.90390136344638
20
39.48946268742975
30
0
11
131.90400272894726
21
42.075555244007418
31
0
0
ARC
5
154
100
AcDbEntity
8
0
100
AcDbCircle
10
132.10400272879355
20
42.075547404728802
30
0
40
0.19999999999990692
210
0
220
-0
230
1
100
AcDbArc
50
89.999999999983714
51
179.99775421208003
0
LINE
5
155
100
AcDbEntity
8
0
100
AcDbLine
10
132.1040027287936
20
42.275547404728712
30
0
11
142.25393609371247
21
42.275547404728748
31
0
0
ARC
5
156
100
AcDbEntity
8
0
100
AcDbCircle
10
142.25393609371253
20
42.075547404728766
30
0
40
0.19999999999996021
210
-0
220
0
230
1
100
AcDbArc
50
0
51
90.000000000016286
0
ENDSEC
0
SECTION
2
OBJECTS
0
DICTIONARY
5
C
100
AcDbDictionary
3
ACAD_GROUP
350
D
3
ACAD_MLINESTYLE
350
17
0
DICTIONARY
5
D
100
AcDbDictionary
0
DICTIONARY
5
1A
330
C
100
AcDbDictionary
0
DICTIONARY
5
17
100
AcDbDictionary
0
ENDSEC
0
EOF
